<svg id="svg" version="1.1" xmlns="http://www.w3.org/2000/svg" xmlns:xlink="http://www.w3.org/1999/xlink" width="400" height="400" viewBox="0, 0, 400,400"><g id="svgg"><path id="path0" d="M120.623 128.500 C 120.756 152.095,121.004 187.644,121.173 207.498 C 121.343 227.352,121.344 250.482,121.174 258.898 C 121.005 267.314,120.757 282.525,120.624 292.700 L 120.383 311.200 133.997 311.200 L 147.611 311.200 147.369 291.700 C 147.236 280.975,146.993 265.270,146.830 256.800 C 146.667 248.330,146.674 228.080,146.846 211.800 C 147.764 124.687,148.061 86.422,147.821 86.033 C 147.637 85.736,143.291 85.600,133.967 85.600 L 120.381 85.600 120.623 128.500 M239.905 88.500 C 238.735 90.095,235.542 94.550,232.809 98.400 C 230.076 102.250,226.470 106.930,224.796 108.800 C 223.122 110.670,218.524 115.877,214.576 120.371 C 210.629 124.866,204.543 131.796,201.052 135.771 C 197.560 139.747,193.582 144.260,192.211 145.800 C 190.840 147.340,186.947 151.755,183.559 155.611 C 171.046 169.853,163.260 178.694,157.900 184.745 C 151.273 192.227,151.370 191.317,156.459 198.262 C 175.280 223.942,202.434 257.788,230.218 290.200 C 246.828 309.577,249.515 312.528,251.459 313.523 L 253.262 314.447 257.131 313.766 C 271.633 311.215,278.745 309.396,279.233 308.113 C 279.962 306.196,279.613 305.536,275.721 301.461 C 269.067 294.495,265.941 291.168,261.193 286.000 C 258.667 283.250,256.510 280.910,256.399 280.800 C 255.784 280.186,245.088 268.236,241.185 263.800 C 238.668 260.940,236.512 258.510,236.394 258.400 C 232.848 255.091,198.629 213.620,185.640 196.890 L 181.518 191.580 183.659 189.022 C 184.837 187.615,189.580 182.097,194.200 176.760 C 198.820 171.423,205.660 163.512,209.400 159.179 C 213.140 154.846,219.980 146.926,224.600 141.578 C 229.220 136.231,235.970 128.413,239.600 124.206 C 254.481 106.958,259.388 101.282,261.389 99.000 C 266.816 92.813,272.397 86.171,272.399 85.900 C 272.399 85.735,265.567 85.600,257.216 85.600 L 242.031 85.600 239.905 88.500 " stroke="none" fill="#f7f7f7" fill-rule="evenodd"></path><path id="path1" d="M163.800 0.666 C 160.327 1.327,157.931 1.832,155.600 2.393 C 154.610 2.631,153.031 2.934,152.091 3.066 C 151.151 3.198,150.285 3.462,150.167 3.653 C 150.049 3.844,149.344 4.000,148.600 4.000 C 147.856 4.000,147.136 4.180,147.000 4.400 C 146.864 4.620,146.144 4.800,145.400 4.800 C 144.656 4.800,143.936 4.980,143.800 5.200 C 143.664 5.420,143.124 5.600,142.600 5.600 C 142.076 5.600,141.536 5.780,141.400 6.000 C 141.264 6.220,140.611 6.400,139.948 6.400 C 139.285 6.400,138.481 6.662,138.160 6.983 C 137.839 7.304,137.317 7.466,136.999 7.344 C 136.681 7.222,136.149 7.394,135.817 7.726 C 135.485 8.058,134.851 8.234,134.407 8.118 C 133.953 7.999,133.600 8.102,133.600 8.353 C 133.600 8.599,133.060 8.800,132.400 8.800 C 131.670 8.800,131.200 9.008,131.200 9.331 C 131.200 9.693,130.819 9.806,130.000 9.685 C 129.116 9.556,128.800 9.669,128.800 10.117 C 128.800 10.528,128.541 10.657,128.000 10.516 C 127.553 10.399,127.200 10.504,127.200 10.753 C 127.200 10.999,126.660 11.200,126.000 11.200 C 125.236 11.200,124.800 11.404,124.800 11.763 C 124.800 12.128,124.520 12.252,124.000 12.116 C 123.473 11.978,123.200 12.104,123.200 12.484 C 123.200 12.898,122.860 13.012,122.000 12.885 C 121.116 12.756,120.800 12.869,120.800 13.317 C 120.800 13.728,120.541 13.857,120.000 13.716 C 119.459 13.574,119.200 13.704,119.200 14.116 C 119.200 14.528,118.941 14.657,118.400 14.516 C 117.873 14.378,117.600 14.504,117.600 14.884 C 117.600 15.298,117.260 15.412,116.400 15.285 C 115.680 15.180,115.200 15.287,115.200 15.555 C 115.200 15.800,114.840 16.000,114.400 16.000 C 113.960 16.000,113.600 16.253,113.600 16.563 C 113.600 16.928,113.320 17.052,112.800 16.916 C 112.259 16.774,112.000 16.904,112.000 17.316 C 112.000 17.728,111.741 17.857,111.200 17.716 C 110.659 17.574,110.400 17.704,110.400 18.116 C 110.400 18.528,110.141 18.657,109.600 18.516 C 109.059 18.374,108.800 18.504,108.800 18.916 C 108.800 19.328,108.541 19.457,108.000 19.316 C 107.459 19.174,107.200 19.304,107.200 19.716 C 107.200 20.128,106.941 20.257,106.400 20.116 C 105.953 19.999,105.600 20.104,105.600 20.353 C 105.600 20.599,105.240 20.800,104.800 20.800 C 104.360 20.800,104.000 20.980,104.000 21.200 C 104.000 21.420,103.640 21.600,103.200 21.600 C 102.760 21.600,102.400 21.780,102.400 22.000 C 102.400 22.220,102.117 22.400,101.771 22.400 C 101.072 22.400,100.000 23.328,100.000 23.934 C 100.000 24.149,99.640 24.231,99.200 24.116 C 98.753 23.999,98.400 24.104,98.400 24.353 C 98.400 24.599,98.117 24.800,97.771 24.800 C 97.072 24.800,96.000 25.728,96.000 26.334 C 96.000 26.549,95.640 26.631,95.200 26.516 C 94.753 26.399,94.400 26.504,94.400 26.753 C 94.400 26.999,94.117 27.200,93.771 27.200 C 93.072 27.200,92.000 28.128,92.000 28.734 C 92.000 28.949,91.640 29.031,91.200 28.916 C 90.753 28.799,90.400 28.904,90.400 29.153 C 90.400 29.399,90.080 29.600,89.688 29.600 C 89.297 29.600,88.717 29.960,88.400 30.400 C 88.083 30.840,87.585 31.200,87.294 31.200 C 86.651 31.200,84.800 32.988,84.800 33.609 C 84.800 33.854,84.479 33.952,84.088 33.828 C 83.643 33.687,83.159 33.902,82.799 34.401 C 82.483 34.840,81.985 35.200,81.694 35.200 C 81.072 35.200,79.200 36.979,79.200 37.569 C 79.200 37.792,78.930 37.871,78.600 37.745 C 78.239 37.606,77.540 38.008,76.840 38.757 C 76.201 39.441,75.467 40.000,75.208 40.000 C 74.949 40.000,74.046 40.720,73.200 41.600 C 72.354 42.480,71.457 43.200,71.205 43.200 C 70.954 43.200,69.871 44.100,68.800 45.200 C 67.729 46.300,66.659 47.200,66.424 47.200 C 65.865 47.200,47.200 65.865,47.200 66.424 C 47.200 66.659,46.300 67.729,45.200 68.800 C 44.100 69.871,43.200 70.954,43.200 71.205 C 43.200 71.457,42.480 72.354,41.600 73.200 C 40.720 74.046,40.000 74.949,40.000 75.208 C 40.000 75.467,39.460 76.183,38.800 76.800 C 38.140 77.417,37.600 78.137,37.600 78.400 C 37.600 78.663,37.060 79.383,36.400 80.000 C 35.740 80.617,35.200 81.369,35.200 81.672 C 35.200 81.975,34.840 82.483,34.400 82.800 C 33.960 83.117,33.600 83.625,33.600 83.928 C 33.600 84.231,33.060 84.983,32.400 85.600 C 31.740 86.217,31.200 86.969,31.200 87.272 C 31.200 87.575,30.840 88.083,30.400 88.400 C 29.960 88.717,29.600 89.297,29.600 89.688 C 29.600 90.080,29.420 90.400,29.200 90.400 C 28.980 90.400,28.800 90.720,28.800 91.112 C 28.800 91.503,28.440 92.083,28.000 92.400 C 27.560 92.717,27.200 93.297,27.200 93.688 C 27.200 94.080,26.999 94.400,26.753 94.400 C 26.504 94.400,26.399 94.753,26.516 95.200 C 26.631 95.640,26.549 96.000,26.334 96.000 C 25.728 96.000,24.800 97.072,24.800 97.771 C 24.800 98.117,24.620 98.400,24.400 98.400 C 24.180 98.400,24.000 98.720,24.000 99.112 C 24.000 99.503,23.640 100.083,23.200 100.400 C 22.760 100.717,22.400 101.297,22.400 101.688 C 22.400 102.080,22.220 102.400,22.000 102.400 C 21.780 102.400,21.600 102.760,21.600 103.200 C 21.600 103.640,21.420 104.000,21.200 104.000 C 20.980 104.000,20.800 104.360,20.800 104.800 C 20.800 105.240,20.620 105.600,20.400 105.600 C 20.180 105.600,20.000 105.960,20.000 106.400 C 20.000 106.840,19.820 107.200,19.600 107.200 C 19.380 107.200,19.200 107.560,19.200 108.000 C 19.200 108.440,19.020 108.800,18.800 108.800 C 18.580 108.800,18.400 109.160,18.400 109.600 C 18.400 110.040,18.220 110.400,18.000 110.400 C 17.780 110.400,17.600 110.760,17.600 111.200 C 17.600 111.640,17.420 112.000,17.200 112.000 C 16.980 112.000,16.800 112.360,16.800 112.800 C 16.800 113.240,16.620 113.600,16.400 113.600 C 16.180 113.600,16.000 113.960,16.000 114.400 C 16.000 114.840,15.820 115.200,15.600 115.200 C 15.380 115.200,15.200 115.740,15.200 116.400 C 15.200 117.060,15.020 117.600,14.800 117.600 C 14.580 117.600,14.400 117.960,14.400 118.400 C 14.400 118.840,14.220 119.200,14.000 119.200 C 13.780 119.200,13.600 119.560,13.600 120.000 C 13.600 120.440,13.420 120.800,13.200 120.800 C 12.980 120.800,12.800 121.340,12.800 122.000 C 12.800 122.660,12.620 123.200,12.400 123.200 C 12.180 123.200,12.000 123.560,12.000 124.000 C 12.000 124.440,11.820 124.800,11.600 124.800 C 11.380 124.800,11.200 125.340,11.200 126.000 C 11.200 126.660,11.020 127.200,10.800 127.200 C 10.580 127.200,10.400 127.560,10.400 128.000 C 10.400 128.440,10.220 128.800,10.000 128.800 C 9.780 128.800,9.600 129.340,9.600 130.000 C 9.600 130.660,9.420 131.200,9.200 131.200 C 8.980 131.200,8.800 131.740,8.800 132.400 C 8.800 133.060,8.620 133.600,8.400 133.600 C 8.180 133.600,8.000 134.140,8.000 134.800 C 8.000 135.460,7.820 136.000,7.600 136.000 C 7.380 136.000,7.200 136.540,7.200 137.200 C 7.200 137.860,7.020 138.400,6.800 138.400 C 6.580 138.400,6.400 139.019,6.400 139.776 C 6.400 140.533,6.220 141.264,6.000 141.400 C 5.780 141.536,5.600 142.076,5.600 142.600 C 5.600 143.124,5.420 143.664,5.200 143.800 C 4.980 143.936,4.800 144.656,4.800 145.400 C 4.800 146.144,4.620 146.864,4.400 147.000 C 4.180 147.136,4.000 147.856,4.000 148.600 C 4.000 149.344,3.820 150.064,3.600 150.200 C 3.380 150.336,3.200 151.056,3.200 151.800 C 3.200 152.544,3.044 153.249,2.853 153.367 C 2.662 153.485,2.395 154.351,2.259 155.291 C 2.124 156.231,1.849 157.810,1.650 158.800 C 0.035 166.811,0.056 166.268,0.056 200.200 C 0.056 234.129,0.050 233.976,1.669 241.600 C 1.880 242.590,2.149 244.120,2.267 245.000 C 2.385 245.880,2.644 246.771,2.841 246.980 C 3.038 247.189,3.200 247.943,3.200 248.656 C 3.200 249.369,3.380 250.064,3.600 250.200 C 3.820 250.336,4.000 251.056,4.000 251.800 C 4.000 252.544,4.180 253.264,4.400 253.400 C 4.620 253.536,4.800 254.256,4.800 255.000 C 4.800 255.744,4.980 256.464,5.200 256.600 C 5.420 256.736,5.600 257.276,5.600 257.800 C 5.600 258.324,5.780 258.864,6.000 259.000 C 6.220 259.136,6.400 259.867,6.400 260.624 C 6.400 261.381,6.580 262.000,6.800 262.000 C 7.020 262.000,7.200 262.540,7.200 263.200 C 7.200 263.860,7.380 264.400,7.600 264.400 C 7.820 264.400,8.000 264.940,8.000 265.600 C 8.000 266.260,8.180 266.800,8.400 266.800 C 8.620 266.800,8.800 267.340,8.800 268.000 C 8.800 268.660,8.980 269.200,9.200 269.200 C 9.420 269.200,9.600 269.740,9.600 270.400 C 9.600 271.060,9.780 271.600,10.000 271.600 C 10.220 271.600,10.400 271.960,10.400 272.400 C 10.400 272.840,10.580 273.200,10.800 273.200 C 11.020 273.200,11.200 273.740,11.200 274.400 C 11.200 275.060,11.380 275.600,11.600 275.600 C 11.820 275.600,12.000 275.960,12.000 276.400 C 12.000 276.840,12.180 277.200,12.400 277.200 C 12.620 277.200,12.800 277.740,12.800 278.400 C 12.800 279.060,12.980 279.600,13.200 279.600 C 13.420 279.600,13.600 279.960,13.600 280.400 C 13.600 280.840,13.780 281.200,14.000 281.200 C 14.220 281.200,14.400 281.560,14.400 282.000 C 14.400 282.440,14.580 282.800,14.800 282.800 C 15.020 282.800,15.200 283.340,15.200 284.000 C 15.200 284.660,15.380 285.200,15.600 285.200 C 15.820 285.200,16.000 285.560,16.000 286.000 C 16.000 286.440,16.180 286.800,16.400 286.800 C 16.620 286.800,16.800 287.160,16.800 287.600 C 16.800 288.040,16.980 288.400,17.200 288.400 C 17.420 288.400,17.600 288.760,17.600 289.200 C 17.600 289.640,17.780 290.000,18.000 290.000 C 18.220 290.000,18.400 290.360,18.400 290.800 C 18.400 291.240,18.580 291.600,18.800 291.600 C 19.020 291.600,19.200 291.960,19.200 292.400 C 19.200 292.840,19.380 293.200,19.600 293.200 C 19.820 293.200,20.000 293.560,20.000 294.000 C 20.000 294.440,20.180 294.800,20.400 294.800 C 20.620 294.800,20.800 295.160,20.800 295.600 C 20.800 296.040,20.980 296.400,21.200 296.400 C 21.420 296.400,21.600 296.760,21.600 297.200 C 21.600 297.640,21.780 298.000,22.000 298.000 C 22.220 298.000,22.400 298.320,22.400 298.712 C 22.400 299.103,22.760 299.683,23.200 300.000 C 23.640 300.317,24.000 300.897,24.000 301.288 C 24.000 301.680,24.180 302.000,24.400 302.000 C 24.620 302.000,24.800 302.283,24.800 302.629 C 24.800 303.328,25.728 304.400,26.334 304.400 C 26.549 304.400,26.631 304.760,26.516 305.200 C 26.399 305.647,26.504 306.000,26.753 306.000 C 26.999 306.000,27.200 306.320,27.200 306.712 C 27.200 307.103,27.560 307.683,28.000 308.000 C 28.440 308.317,28.800 308.897,28.800 309.288 C 28.800 309.680,28.980 310.000,29.200 310.000 C 29.420 310.000,29.600 310.320,29.600 310.712 C 29.600 311.103,29.960 311.683,30.400 312.000 C 30.840 312.317,31.200 312.825,31.200 313.128 C 31.200 313.431,31.740 314.183,32.400 314.800 C 33.060 315.417,33.600 316.169,33.600 316.472 C 33.600 316.775,33.960 317.283,34.400 317.600 C 34.840 317.917,35.200 318.425,35.200 318.728 C 35.200 319.031,35.740 319.783,36.400 320.400 C 37.060 321.017,37.600 321.737,37.600 322.000 C 37.600 322.263,38.140 322.983,38.800 323.600 C 39.460 324.217,40.000 324.933,40.000 325.192 C 40.000 325.451,40.720 326.354,41.600 327.200 C 42.480 328.046,43.200 328.943,43.200 329.195 C 43.200 329.446,44.100 330.529,45.200 331.600 C 46.300 332.671,47.200 333.741,47.200 333.976 C 47.200 334.535,65.865 353.200,66.424 353.200 C 66.659 353.200,67.729 354.100,68.800 355.200 C 69.871 356.300,70.954 357.200,71.205 357.200 C 71.457 357.200,72.354 357.920,73.200 358.800 C 74.046 359.680,74.949 360.400,75.208 360.400 C 75.467 360.400,76.184 360.941,76.802 361.602 C 77.517 362.368,78.156 362.715,78.562 362.559 C 78.919 362.422,79.200 362.518,79.200 362.775 C 79.200 363.409,81.042 365.200,81.694 365.200 C 81.985 365.200,82.483 365.560,82.799 365.999 C 83.159 366.498,83.643 366.713,84.088 366.572 C 84.479 366.448,84.800 366.546,84.800 366.791 C 84.800 367.412,86.651 369.200,87.294 369.200 C 87.585 369.200,88.083 369.560,88.400 370.000 C 88.717 370.440,89.297 370.800,89.688 370.800 C 90.080 370.800,90.400 370.992,90.400 371.227 C 90.400 371.472,90.741 371.546,91.200 371.400 C 91.680 371.248,92.000 371.328,92.000 371.602 C 92.000 372.262,93.040 373.200,93.771 373.200 C 94.117 373.200,94.400 373.392,94.400 373.627 C 94.400 373.872,94.741 373.946,95.200 373.800 C 95.680 373.648,96.000 373.728,96.000 374.002 C 96.000 374.662,97.040 375.600,97.771 375.600 C 98.117 375.600,98.400 375.792,98.400 376.027 C 98.400 376.272,98.741 376.346,99.200 376.200 C 99.680 376.048,100.000 376.128,100.000 376.402 C 100.000 377.062,101.040 378.000,101.771 378.000 C 102.117 378.000,102.400 378.180,102.400 378.400 C 102.400 378.620,102.760 378.800,103.200 378.800 C 103.640 378.800,104.000 378.980,104.000 379.200 C 104.000 379.420,104.360 379.600,104.800 379.600 C 105.240 379.600,105.600 379.792,105.600 380.027 C 105.600 380.272,105.941 380.346,106.400 380.200 C 106.977 380.017,107.200 380.128,107.200 380.600 C 107.200 381.072,107.423 381.183,108.000 381.000 C 108.577 380.817,108.800 380.928,108.800 381.400 C 108.800 381.872,109.023 381.983,109.600 381.800 C 110.177 381.617,110.400 381.728,110.400 382.200 C 110.400 382.672,110.623 382.783,111.200 382.600 C 111.777 382.417,112.000 382.528,112.000 383.000 C 112.000 383.472,112.223 383.583,112.800 383.400 C 113.368 383.220,113.600 383.328,113.600 383.773 C 113.600 384.133,113.940 384.400,114.400 384.400 C 114.840 384.400,115.200 384.603,115.200 384.850 C 115.200 385.137,115.636 385.213,116.400 385.060 C 117.318 384.876,117.600 384.965,117.600 385.437 C 117.600 385.872,117.836 385.979,118.400 385.800 C 118.977 385.617,119.200 385.728,119.200 386.200 C 119.200 386.672,119.423 386.783,120.000 386.600 C 120.585 386.414,120.800 386.528,120.800 387.023 C 120.800 387.562,121.045 387.651,122.000 387.460 C 122.918 387.276,123.200 387.365,123.200 387.837 C 123.200 388.272,123.436 388.379,124.000 388.200 C 124.568 388.020,124.800 388.128,124.800 388.573 C 124.800 389.003,125.177 389.200,126.000 389.200 C 126.660 389.200,127.200 389.392,127.200 389.627 C 127.200 389.872,127.541 389.946,128.000 389.800 C 128.585 389.614,128.800 389.728,128.800 390.223 C 128.800 390.762,129.045 390.851,130.000 390.660 C 130.899 390.480,131.200 390.568,131.200 391.010 C 131.200 391.399,131.609 391.600,132.400 391.600 C 133.060 391.600,133.600 391.792,133.600 392.027 C 133.600 392.264,133.937 392.347,134.358 392.213 C 134.792 392.075,135.377 392.234,135.728 392.585 C 136.065 392.922,136.601 393.098,136.919 392.976 C 137.237 392.854,137.777 393.034,138.120 393.377 C 138.463 393.720,139.285 394.000,139.948 394.000 C 140.611 394.000,141.264 394.180,141.400 394.400 C 141.536 394.620,142.076 394.800,142.600 394.800 C 143.124 394.800,143.669 394.987,143.810 395.216 C 143.952 395.445,144.367 395.538,144.734 395.421 C 145.100 395.305,145.916 395.478,146.546 395.805 C 147.176 396.132,148.200 396.400,148.822 396.400 C 149.444 396.400,150.049 396.556,150.167 396.747 C 150.285 396.938,151.151 397.202,152.091 397.334 C 153.031 397.466,154.610 397.770,155.600 398.009 C 158.274 398.655,160.713 399.149,163.400 399.590 C 164.841 399.827,179.552 399.986,200.200 399.990 C 233.747 399.995,235.644 399.937,241.200 398.737 C 242.190 398.523,243.720 398.251,244.600 398.133 C 245.480 398.015,246.371 397.756,246.580 397.559 C 246.789 397.362,247.543 397.200,248.256 397.200 C 248.969 397.200,249.664 397.020,249.800 396.800 C 249.936 396.580,250.556 396.400,251.178 396.400 C 251.800 396.400,252.824 396.132,253.454 395.805 C 254.084 395.478,254.900 395.305,255.266 395.421 C 255.633 395.538,256.048 395.445,256.190 395.216 C 256.331 394.987,256.876 394.800,257.400 394.800 C 257.924 394.800,258.464 394.620,258.600 394.400 C 258.736 394.180,259.456 394.000,260.200 394.000 C 260.944 394.000,261.664 393.820,261.800 393.600 C 261.936 393.380,262.476 393.200,263.000 393.200 C 263.524 393.200,264.064 393.020,264.200 392.800 C 264.336 392.580,264.876 392.400,265.400 392.400 C 265.924 392.400,266.464 392.220,266.600 392.000 C 266.736 391.780,267.292 391.600,267.836 391.600 C 268.380 391.600,268.918 391.357,269.033 391.059 C 269.159 390.730,269.621 390.591,270.215 390.705 C 270.855 390.827,271.272 390.678,271.428 390.271 C 271.559 389.930,271.903 389.741,272.193 389.853 C 272.482 389.964,272.838 389.862,272.983 389.627 C 273.128 389.392,273.692 389.200,274.236 389.200 C 274.780 389.200,275.324 388.941,275.446 388.625 C 275.567 388.309,275.920 388.148,276.230 388.267 C 276.540 388.386,276.894 388.221,277.017 387.901 C 277.159 387.531,277.595 387.387,278.215 387.505 C 278.855 387.627,279.272 387.478,279.428 387.071 C 279.559 386.730,279.920 386.548,280.230 386.667 C 280.540 386.786,280.900 386.606,281.030 386.267 C 281.160 385.928,281.520 385.748,281.830 385.867 C 282.140 385.986,282.500 385.806,282.630 385.467 C 282.760 385.128,283.123 384.949,283.436 385.069 C 284.099 385.324,286.800 384.139,286.800 383.594 C 286.800 383.391,287.068 383.328,287.397 383.454 C 287.732 383.583,288.097 383.413,288.230 383.067 C 288.360 382.728,288.720 382.548,289.030 382.667 C 289.340 382.786,289.700 382.606,289.830 382.267 C 289.960 381.928,290.320 381.748,290.630 381.867 C 290.940 381.986,291.300 381.806,291.430 381.467 C 291.560 381.128,291.920 380.948,292.230 381.067 C 292.540 381.186,292.904 380.995,293.039 380.644 C 293.173 380.292,293.418 380.088,293.583 380.189 C 294.011 380.454,299.520 377.641,300.107 376.857 C 300.378 376.496,300.780 376.190,301.000 376.177 C 301.855 376.128,303.545 375.216,304.060 374.525 C 304.357 374.126,304.780 373.790,305.000 373.777 C 305.922 373.724,307.609 372.775,308.059 372.055 C 308.325 371.628,308.759 371.363,309.023 371.464 C 309.287 371.566,309.840 371.233,310.252 370.724 C 310.663 370.216,311.180 369.790,311.400 369.777 C 312.374 369.722,313.949 368.776,314.850 367.706 C 315.388 367.066,316.015 366.605,316.243 366.681 C 316.472 366.757,316.988 366.455,317.391 366.010 C 317.794 365.564,318.311 365.200,318.540 365.200 C 319.197 365.200,321.199 363.116,321.206 362.425 C 321.211 361.879,321.260 361.875,321.589 362.395 C 321.902 362.891,322.190 362.773,323.302 361.695 C 324.037 360.983,324.818 360.400,325.038 360.400 C 325.258 360.400,326.141 359.680,327.000 358.800 C 327.859 357.920,328.758 357.200,328.996 357.200 C 329.235 357.200,330.317 356.300,331.400 355.200 C 332.483 354.100,333.555 353.200,333.782 353.200 C 334.324 353.200,353.200 334.330,353.200 333.788 C 353.200 333.558,354.100 332.483,355.200 331.400 C 356.300 330.317,357.200 329.235,357.200 328.996 C 357.200 328.758,357.920 327.859,358.800 327.000 C 359.680 326.141,360.400 325.238,360.400 324.994 C 360.400 324.749,360.940 324.032,361.600 323.400 C 362.260 322.768,362.800 322.048,362.800 321.800 C 362.800 321.552,363.340 320.832,364.000 320.200 C 364.660 319.568,365.200 318.842,365.200 318.587 C 365.200 318.332,365.560 317.798,366.000 317.400 C 366.440 317.002,366.800 316.468,366.800 316.213 C 366.800 315.958,367.340 315.232,368.000 314.600 C 368.660 313.968,369.200 313.236,369.200 312.974 C 369.200 312.712,369.479 312.266,369.820 311.984 C 370.161 311.701,370.790 310.700,371.219 309.759 C 371.647 308.818,372.189 307.930,372.424 307.785 C 372.861 307.515,373.736 305.713,373.777 305.000 C 373.790 304.780,374.110 304.369,374.488 304.086 C 374.866 303.803,375.482 302.903,375.855 302.086 C 376.229 301.269,376.791 300.297,377.105 299.927 C 377.849 299.049,385.200 284.359,385.200 283.749 C 385.200 283.492,385.740 282.255,386.400 281.000 C 387.060 279.745,387.600 278.473,387.600 278.172 C 387.600 277.871,387.960 276.983,388.400 276.200 C 388.840 275.417,389.200 274.517,389.200 274.200 C 389.200 273.883,389.560 272.983,390.000 272.200 C 390.440 271.417,390.800 270.432,390.800 270.011 C 390.800 269.591,390.980 269.136,391.200 269.000 C 391.420 268.864,391.600 268.324,391.600 267.800 C 391.600 267.276,391.780 266.736,392.000 266.600 C 392.220 266.464,392.400 265.924,392.400 265.400 C 392.400 264.876,392.580 264.336,392.800 264.200 C 393.020 264.064,393.200 263.524,393.200 263.000 C 393.200 262.476,393.380 261.936,393.600 261.800 C 393.820 261.664,394.000 260.944,394.000 260.200 C 394.000 259.456,394.180 258.736,394.400 258.600 C 394.620 258.464,394.800 257.924,394.800 257.400 C 394.800 256.876,394.980 256.336,395.200 256.200 C 395.420 256.064,395.600 255.344,395.600 254.600 C 395.600 253.856,395.780 253.136,396.000 253.000 C 396.220 252.864,396.400 252.144,396.400 251.400 C 396.400 250.656,396.580 249.936,396.800 249.800 C 397.020 249.664,397.200 248.969,397.200 248.256 C 397.200 247.543,397.362 246.789,397.559 246.580 C 397.756 246.371,398.015 245.480,398.133 244.600 C 398.251 243.720,398.523 242.190,398.737 241.200 C 399.937 235.645,399.995 233.737,399.995 200.000 C 399.995 166.263,399.937 164.355,398.737 158.800 C 398.523 157.810,398.251 156.280,398.133 155.400 C 398.015 154.520,397.756 153.629,397.559 153.420 C 397.362 153.211,397.200 152.457,397.200 151.744 C 397.200 151.031,397.020 150.336,396.800 150.200 C 396.580 150.064,396.400 149.344,396.400 148.600 C 396.400 147.856,396.220 147.136,396.000 147.000 C 395.780 146.864,395.600 146.144,395.600 145.400 C 395.600 144.656,395.420 143.936,395.200 143.800 C 394.980 143.664,394.800 143.124,394.800 142.600 C 394.800 142.076,394.620 141.536,394.400 141.400 C 394.180 141.264,394.000 140.533,394.000 139.776 C 394.000 139.019,393.820 138.400,393.600 138.400 C 393.380 138.400,393.200 137.860,393.200 137.200 C 393.200 136.540,393.020 136.000,392.800 136.000 C 392.580 136.000,392.400 135.460,392.400 134.800 C 392.400 134.140,392.220 133.600,392.000 133.600 C 391.780 133.600,391.600 133.060,391.600 132.400 C 391.600 131.740,391.420 131.200,391.200 131.200 C 390.980 131.200,390.800 130.660,390.800 130.000 C 390.800 129.340,390.620 128.800,390.400 128.800 C 390.180 128.800,390.000 128.440,390.000 128.000 C 390.000 127.560,389.820 127.200,389.600 127.200 C 389.380 127.200,389.200 126.660,389.200 126.000 C 389.200 125.340,389.020 124.800,388.800 124.800 C 388.580 124.800,388.400 124.440,388.400 124.000 C 388.400 123.560,388.220 123.200,388.000 123.200 C 387.780 123.200,387.600 122.660,387.600 122.000 C 387.600 121.340,387.420 120.800,387.200 120.800 C 386.980 120.800,386.800 120.440,386.800 120.000 C 386.800 119.560,386.620 119.200,386.400 119.200 C 386.180 119.200,386.000 118.840,386.000 118.400 C 386.000 117.960,385.820 117.600,385.600 117.600 C 385.380 117.600,385.200 117.060,385.200 116.400 C 385.200 115.740,385.020 115.200,384.800 115.200 C 384.580 115.200,384.400 114.840,384.400 114.400 C 384.400 113.960,384.220 113.600,384.000 113.600 C 383.780 113.600,383.600 113.240,383.600 112.800 C 383.600 112.360,383.420 112.000,383.200 112.000 C 382.980 112.000,382.800 111.640,382.800 111.200 C 382.800 110.760,382.620 110.400,382.400 110.400 C 382.180 110.400,382.000 110.040,382.000 109.600 C 382.000 109.160,381.820 108.800,381.600 108.800 C 381.380 108.800,381.200 108.440,381.200 108.000 C 381.200 107.560,381.020 107.200,380.800 107.200 C 380.580 107.200,380.400 106.840,380.400 106.400 C 380.400 105.960,380.220 105.600,380.000 105.600 C 379.780 105.600,379.600 105.240,379.600 104.800 C 379.600 104.360,379.420 104.000,379.200 104.000 C 378.980 104.000,378.800 103.640,378.800 103.200 C 378.800 102.760,378.620 102.400,378.400 102.400 C 378.180 102.400,378.000 102.080,378.000 101.688 C 378.000 101.297,377.640 100.717,377.200 100.400 C 376.760 100.083,376.400 99.503,376.400 99.112 C 376.400 98.720,376.220 98.400,376.000 98.400 C 375.780 98.400,375.600 98.117,375.600 97.771 C 375.600 97.040,374.662 96.000,374.002 96.000 C 373.728 96.000,373.648 95.680,373.800 95.200 C 373.946 94.741,373.872 94.400,373.627 94.400 C 373.392 94.400,373.200 94.080,373.200 93.688 C 373.200 93.297,372.840 92.717,372.400 92.400 C 371.960 92.083,371.600 91.503,371.600 91.112 C 371.600 90.720,371.420 90.400,371.200 90.400 C 370.980 90.400,370.800 90.080,370.800 89.688 C 370.800 89.297,370.440 88.717,370.000 88.400 C 369.560 88.083,369.200 87.575,369.200 87.272 C 369.200 86.969,368.660 86.217,368.000 85.600 C 367.340 84.983,366.800 84.231,366.800 83.928 C 366.800 83.625,366.440 83.117,366.000 82.800 C 365.560 82.483,365.200 81.975,365.200 81.672 C 365.200 81.369,364.660 80.617,364.000 80.000 C 363.340 79.383,362.800 78.663,362.800 78.400 C 362.800 78.137,362.260 77.417,361.600 76.800 C 360.940 76.183,360.400 75.467,360.400 75.208 C 360.400 74.949,359.680 74.046,358.800 73.200 C 357.920 72.354,357.200 71.457,357.200 71.205 C 357.200 70.954,356.300 69.871,355.200 68.800 C 354.100 67.729,353.200 66.659,353.200 66.424 C 353.200 65.865,334.535 47.200,333.976 47.200 C 333.741 47.200,332.671 46.300,331.600 45.200 C 330.529 44.100,329.446 43.200,329.195 43.200 C 328.943 43.200,328.046 42.480,327.200 41.600 C 326.354 40.720,325.451 40.000,325.192 40.000 C 324.933 40.000,324.199 39.441,323.560 38.757 C 322.860 38.008,322.161 37.606,321.800 37.745 C 321.470 37.871,321.200 37.792,321.200 37.569 C 321.200 37.008,319.342 35.200,318.765 35.200 C 318.506 35.200,317.963 34.819,317.559 34.353 C 317.135 33.863,316.565 33.604,316.212 33.740 C 315.875 33.869,315.600 33.792,315.600 33.569 C 315.600 32.979,313.728 31.200,313.106 31.200 C 312.815 31.200,312.317 30.840,312.000 30.400 C 311.683 29.960,311.103 29.600,310.712 29.600 C 310.320 29.600,310.000 29.399,310.000 29.153 C 310.000 28.904,309.647 28.799,309.200 28.916 C 308.760 29.031,308.400 28.949,308.400 28.734 C 308.400 28.128,307.328 27.200,306.629 27.200 C 306.283 27.200,306.000 26.999,306.000 26.753 C 306.000 26.504,305.647 26.399,305.200 26.516 C 304.760 26.631,304.400 26.549,304.400 26.334 C 304.400 25.728,303.328 24.800,302.629 24.800 C 302.283 24.800,302.000 24.599,302.000 24.353 C 302.000 24.104,301.647 23.999,301.200 24.116 C 300.760 24.231,300.400 24.149,300.400 23.934 C 300.400 23.328,299.328 22.400,298.629 22.400 C 298.283 22.400,298.000 22.220,298.000 22.000 C 298.000 21.780,297.640 21.600,297.200 21.600 C 296.760 21.600,296.400 21.400,296.400 21.157 C 296.400 20.885,296.017 20.809,295.411 20.962 C 294.600 21.165,294.468 21.089,294.678 20.541 C 294.882 20.008,294.758 19.918,294.067 20.098 C 293.458 20.258,293.200 20.144,293.200 19.716 C 293.200 19.304,292.941 19.174,292.400 19.316 C 291.859 19.457,291.600 19.328,291.600 18.916 C 291.600 18.504,291.341 18.374,290.800 18.516 C 290.259 18.657,290.000 18.528,290.000 18.116 C 290.000 17.704,289.741 17.574,289.200 17.716 C 288.659 17.857,288.400 17.728,288.400 17.316 C 288.400 16.904,288.141 16.774,287.600 16.916 C 287.080 17.052,286.800 16.928,286.800 16.563 C 286.800 16.253,286.440 16.000,286.000 16.000 C 285.560 16.000,285.200 15.800,285.200 15.555 C 285.200 15.287,284.720 15.180,284.000 15.285 C 283.140 15.412,282.800 15.298,282.800 14.884 C 282.800 14.504,282.527 14.378,282.000 14.516 C 281.459 14.657,281.200 14.528,281.200 14.116 C 281.200 13.704,280.941 13.574,280.400 13.716 C 279.859 13.857,279.600 13.728,279.600 13.317 C 279.600 12.869,279.284 12.756,278.400 12.885 C 277.540 13.012,277.200 12.898,277.200 12.484 C 277.200 12.104,276.927 11.978,276.400 12.116 C 275.880 12.252,275.600 12.128,275.600 11.763 C 275.600 11.404,275.164 11.200,274.400 11.200 C 273.740 11.200,273.200 10.999,273.200 10.753 C 273.200 10.504,272.847 10.399,272.400 10.516 C 271.859 10.657,271.600 10.528,271.600 10.117 C 271.600 9.669,271.284 9.556,270.400 9.685 C 269.581 9.806,269.200 9.693,269.200 9.331 C 269.200 9.008,268.730 8.800,268.000 8.800 C 267.340 8.800,266.800 8.620,266.800 8.400 C 266.800 8.180,266.260 8.000,265.600 8.000 C 264.940 8.000,264.400 7.799,264.400 7.553 C 264.400 7.302,264.047 7.199,263.593 7.318 C 263.149 7.434,262.532 7.275,262.222 6.964 C 261.911 6.654,261.115 6.400,260.452 6.400 C 259.789 6.400,259.136 6.220,259.000 6.000 C 258.864 5.780,258.324 5.600,257.800 5.600 C 257.276 5.600,256.743 5.432,256.617 5.227 C 256.490 5.022,255.841 4.869,255.174 4.888 C 254.508 4.907,253.755 4.715,253.501 4.461 C 253.248 4.208,252.457 4.000,251.744 4.000 C 251.031 4.000,250.336 3.820,250.200 3.600 C 250.064 3.380,249.344 3.200,248.600 3.200 C 247.856 3.200,247.151 3.044,247.033 2.853 C 246.915 2.662,246.049 2.395,245.109 2.259 C 244.169 2.124,242.590 1.849,241.600 1.650 C 233.498 0.017,234.269 0.046,199.800 0.090 C 173.951 0.123,165.980 0.251,163.800 0.666 M148.317 85.300 C 148.603 85.644,148.619 97.811,148.370 124.400 C 147.432 224.201,147.283 244.743,147.443 252.000 C 147.924 273.881,148.368 310.818,148.156 311.371 C 147.798 312.302,120.212 312.330,119.855 311.399 C 119.728 311.069,119.829 300.494,120.079 287.899 C 120.608 261.281,120.590 215.147,120.022 139.710 C 119.800 110.180,119.723 85.745,119.852 85.410 C 120.168 84.585,147.636 84.479,148.317 85.300 M273.600 85.551 C 273.600 85.964,273.310 86.543,272.955 86.837 C 272.600 87.132,270.750 89.179,268.844 91.386 C 266.937 93.594,263.132 97.989,260.389 101.154 C 257.645 104.319,254.680 107.756,253.800 108.793 C 252.920 109.829,249.500 113.793,246.200 117.600 C 242.900 121.407,239.480 125.367,238.600 126.400 C 237.720 127.433,234.300 131.393,231.000 135.200 C 227.700 139.007,224.280 142.971,223.400 144.008 C 222.520 145.044,220.175 147.762,218.189 150.046 C 214.851 153.885,208.605 161.107,201.818 168.975 C 200.288 170.749,196.868 174.706,194.218 177.769 C 183.940 189.650,182.812 191.019,182.814 191.600 C 182.820 193.392,215.676 233.639,236.994 257.968 C 240.737 262.240,244.590 266.650,245.555 267.768 C 249.335 272.144,260.931 284.787,272.109 296.719 L 280.464 305.638 280.191 307.319 C 280.041 308.244,279.786 309.141,279.625 309.314 C 279.117 309.858,268.505 312.382,260.685 313.818 L 253.170 315.199 251.230 314.215 C 249.775 313.478,248.053 311.806,244.345 307.529 C 241.625 304.393,238.664 301.010,237.764 300.013 C 225.465 286.383,194.405 248.714,176.571 225.800 C 165.416 211.467,152.418 194.099,151.975 192.935 C 151.390 191.395,152.105 190.296,158.095 183.528 C 161.233 179.983,164.610 176.147,165.600 175.004 C 166.590 173.861,170.550 169.358,174.400 164.998 C 178.250 160.638,183.560 154.614,186.200 151.613 C 188.840 148.611,192.818 144.095,195.040 141.578 C 197.262 139.060,200.506 135.380,202.249 133.400 C 203.991 131.420,208.023 126.848,211.209 123.241 C 217.067 116.605,218.254 115.250,224.430 108.146 C 226.317 105.976,230.798 100.060,234.387 95.000 C 237.977 89.940,241.193 85.575,241.534 85.300 C 242.702 84.357,273.600 84.599,273.600 85.551 " stroke="none" fill="#040404" fill-rule="evenodd"></path><path id="path2" d="M119.843 85.433 C 119.709 85.781,119.640 90.686,119.690 96.333 L 119.780 106.600 119.990 96.000 L 120.200 85.400 134.200 85.400 L 148.200 85.400 148.417 91.200 L 148.634 97.000 148.717 91.380 C 148.775 87.443,148.656 85.616,148.320 85.280 C 147.498 84.458,120.160 84.605,119.843 85.433 M241.557 85.300 C 241.229 85.575,240.706 86.160,240.396 86.600 C 240.055 87.082,240.310 86.963,241.037 86.300 L 242.244 85.200 257.498 85.200 C 265.888 85.200,272.848 85.354,272.964 85.542 C 273.081 85.730,272.519 86.675,271.716 87.642 L 270.256 89.400 271.928 87.819 C 275.223 84.703,275.677 84.800,257.876 84.800 C 245.882 84.800,242.012 84.919,241.557 85.300 M238.750 88.900 C 238.252 89.615,237.385 90.821,236.822 91.580 C 236.260 92.339,235.992 92.843,236.227 92.701 C 236.733 92.395,240.141 87.600,239.853 87.600 C 239.744 87.600,239.247 88.185,238.750 88.900 M264.825 95.530 C 262.089 98.725,260.044 101.220,260.279 101.075 C 260.914 100.682,270.124 89.986,269.950 89.844 C 269.867 89.776,267.561 92.335,264.825 95.530 M234.750 94.500 C 234.252 95.215,233.385 96.421,232.822 97.180 C 232.260 97.939,231.992 98.443,232.227 98.301 C 232.733 97.995,236.141 93.200,235.853 93.200 C 235.744 93.200,235.247 93.785,234.750 94.500 M230.750 100.100 C 230.252 100.815,229.385 102.021,228.822 102.780 C 228.260 103.539,227.992 104.043,228.227 103.901 C 228.733 103.595,232.141 98.800,231.853 98.800 C 231.744 98.800,231.247 99.385,230.750 100.100 M148.186 120.800 C 148.186 132.570,148.237 137.385,148.300 131.500 C 148.362 125.615,148.362 115.985,148.300 110.100 C 148.237 104.215,148.186 109.030,148.186 120.800 M258.573 102.900 C 256.013 105.713,255.020 106.912,255.459 106.664 C 255.711 106.521,256.854 105.323,257.998 104.002 C 260.182 101.481,260.608 100.665,258.573 102.900 M225.660 106.768 C 224.527 108.071,223.600 109.242,223.600 109.370 C 223.600 109.498,224.267 108.837,225.082 107.901 C 225.896 106.966,226.918 105.795,227.351 105.300 C 227.785 104.805,228.045 104.400,227.930 104.400 C 227.814 104.400,226.793 105.466,225.660 106.768 M252.008 110.364 C 250.582 112.034,249.732 113.149,250.118 112.843 C 251.100 112.063,254.937 107.597,254.752 107.450 C 254.668 107.383,253.434 108.695,252.008 110.364 M221.577 111.500 C 218.601 114.724,217.419 116.109,217.855 115.864 C 218.364 115.578,223.374 110.000,223.122 110.000 C 223.034 110.000,222.339 110.675,221.577 111.500 M246.949 116.282 C 245.657 117.757,244.806 118.837,245.059 118.683 C 245.624 118.339,249.753 113.600,249.488 113.600 C 249.384 113.600,248.241 114.807,246.949 116.282 M214.528 119.430 C 213.028 121.096,211.731 122.653,211.647 122.890 C 211.562 123.127,212.182 122.528,213.025 121.560 C 213.867 120.592,215.279 119.035,216.162 118.100 C 217.044 117.165,217.652 116.400,217.511 116.400 C 217.371 116.400,216.029 117.763,214.528 119.430 M242.009 121.907 C 240.804 123.366,240.020 124.435,240.268 124.282 C 240.995 123.833,244.912 119.197,244.540 119.227 C 244.353 119.242,243.214 120.448,242.009 121.907 M208.213 126.600 C 206.736 128.250,205.679 129.586,205.864 129.570 C 206.210 129.539,211.394 123.600,211.076 123.600 C 210.978 123.600,209.690 124.950,208.213 126.600 M236.808 127.964 C 235.382 129.634,234.532 130.749,234.918 130.443 C 235.900 129.663,239.737 125.197,239.552 125.050 C 239.468 124.983,238.234 126.295,236.808 127.964 M120.186 148.200 C 120.186 159.200,120.237 163.642,120.300 158.072 C 120.363 152.502,120.362 143.502,120.300 138.072 C 120.237 132.642,120.185 137.200,120.186 148.200 M203.977 131.500 C 200.420 135.353,199.858 136.000,200.073 136.000 C 200.199 136.000,201.510 134.650,202.987 133.000 C 204.464 131.350,205.602 130.000,205.517 130.000 C 205.432 130.000,204.739 130.675,203.977 131.500 M231.749 133.882 C 230.457 135.357,229.606 136.437,229.859 136.283 C 230.424 135.939,234.553 131.200,234.288 131.200 C 234.184 131.200,233.041 132.407,231.749 133.882 M196.928 139.430 C 195.428 141.096,194.131 142.653,194.047 142.890 C 193.962 143.127,194.582 142.528,195.425 141.560 C 196.267 140.592,197.679 139.035,198.562 138.100 C 199.444 137.165,200.052 136.400,199.911 136.400 C 199.771 136.400,198.429 137.763,196.928 139.430 M226.809 139.507 C 225.604 140.966,224.820 142.035,225.068 141.882 C 225.795 141.433,229.712 136.797,229.340 136.827 C 229.153 136.842,228.014 138.048,226.809 139.507 M221.608 145.564 C 220.182 147.234,219.332 148.349,219.718 148.043 C 220.700 147.263,224.537 142.797,224.352 142.650 C 224.268 142.583,223.034 143.895,221.608 145.564 M190.673 146.500 C 189.239 148.095,188.142 149.475,188.233 149.567 C 188.325 149.658,188.452 149.658,188.516 149.567 C 188.579 149.475,189.768 148.095,191.157 146.500 C 192.546 144.905,193.592 143.600,193.481 143.600 C 193.370 143.600,192.106 144.905,190.673 146.500 M216.549 151.482 C 215.257 152.957,214.406 154.037,214.659 153.883 C 215.224 153.539,219.353 148.800,219.088 148.800 C 218.984 148.800,217.841 150.007,216.549 151.482 M181.880 156.500 C 178.700 160.075,176.166 163.075,176.249 163.167 C 176.332 163.258,176.453 163.258,176.518 163.167 C 176.582 163.075,179.204 160.075,182.343 156.500 C 185.482 152.925,187.963 150.000,187.856 150.000 C 187.749 150.000,185.059 152.925,181.880 156.500 M211.677 157.027 C 208.924 160.363,209.248 160.346,212.185 157.000 C 213.440 155.570,214.317 154.412,214.134 154.427 C 213.950 154.442,212.844 155.612,211.677 157.027 M147.781 171.000 C 147.780 178.920,147.834 182.217,147.899 178.326 C 147.965 174.435,147.965 167.955,147.900 163.926 C 147.834 159.897,147.781 163.080,147.781 171.000 M206.408 163.164 C 204.982 164.834,204.132 165.949,204.518 165.643 C 205.500 164.863,209.337 160.397,209.152 160.250 C 209.068 160.183,207.834 161.495,206.408 163.164 M174.377 165.100 C 171.401 168.324,170.219 169.709,170.655 169.464 C 171.164 169.178,176.174 163.600,175.922 163.600 C 175.834 163.600,175.139 164.275,174.377 165.100 M201.349 169.082 C 200.057 170.557,199.206 171.637,199.459 171.483 C 200.024 171.139,204.153 166.400,203.888 166.400 C 203.784 166.400,202.641 167.607,201.349 169.082 M167.328 173.030 C 165.828 174.696,164.531 176.253,164.447 176.490 C 164.362 176.727,164.982 176.128,165.825 175.160 C 166.667 174.192,168.079 172.635,168.962 171.700 C 169.844 170.765,170.452 170.000,170.311 170.000 C 170.171 170.000,168.829 171.363,167.328 173.030 M120.589 198.200 C 120.589 213.600,120.639 219.842,120.700 212.071 C 120.761 204.300,120.761 191.700,120.700 184.071 C 120.639 176.442,120.589 182.800,120.589 198.200 M193.618 177.908 C 190.878 181.120,188.844 183.620,189.099 183.462 C 189.800 183.029,199.277 171.995,198.915 172.034 C 198.742 172.052,196.358 174.696,193.618 177.908 M161.073 180.100 C 159.639 181.695,158.542 183.075,158.633 183.167 C 158.725 183.258,158.852 183.258,158.916 183.167 C 158.979 183.075,160.168 181.695,161.557 180.100 C 162.946 178.505,163.992 177.200,163.881 177.200 C 163.770 177.200,162.506 178.505,161.073 180.100 M155.312 186.700 C 153.786 188.405,152.391 190.070,152.210 190.400 C 151.807 191.138,151.864 191.078,155.563 186.900 C 157.170 185.085,158.395 183.600,158.285 183.600 C 158.175 183.600,156.837 184.995,155.312 186.700 M186.149 186.682 C 184.857 188.157,184.006 189.237,184.259 189.083 C 184.824 188.739,188.953 184.000,188.688 184.000 C 188.584 184.000,187.441 185.207,186.149 186.682 M147.386 208.800 C 147.386 220.570,147.437 225.385,147.500 219.500 C 147.562 213.615,147.562 203.985,147.500 198.100 C 147.437 192.215,147.386 197.030,147.386 208.800 M182.800 190.600 C 182.152 191.812,182.484 192.554,184.860 195.200 C 186.418 196.934,186.410 196.912,184.639 194.575 C 182.619 191.912,182.481 191.415,183.462 190.331 C 183.826 189.929,183.947 189.600,183.730 189.600 C 183.513 189.600,183.094 190.050,182.800 190.600 M153.540 195.516 C 154.033 196.209,154.644 196.904,154.897 197.060 C 155.150 197.217,154.954 196.777,154.460 196.084 C 153.967 195.391,153.356 194.696,153.103 194.540 C 152.850 194.383,153.046 194.823,153.540 195.516 M186.863 197.900 C 187.187 198.285,189.121 200.715,191.162 203.300 C 193.203 205.885,194.968 208.000,195.084 208.000 C 195.201 208.000,194.675 207.235,193.915 206.300 C 193.156 205.365,191.225 202.935,189.624 200.900 C 188.023 198.865,186.615 197.200,186.495 197.200 C 186.374 197.200,186.540 197.515,186.863 197.900 M156.416 199.363 C 157.168 200.409,157.956 201.373,158.167 201.503 C 158.378 201.633,157.935 200.884,157.184 199.837 C 156.432 198.791,155.644 197.827,155.433 197.697 C 155.222 197.567,155.665 198.316,156.416 199.363 M159.375 203.332 C 159.991 204.139,160.576 204.800,160.675 204.800 C 160.953 204.800,159.221 202.460,158.709 202.144 C 158.459 201.989,158.759 202.524,159.375 203.332 M161.775 206.532 C 162.391 207.339,162.976 208.000,163.075 208.000 C 163.353 208.000,161.621 205.660,161.109 205.344 C 160.859 205.189,161.159 205.724,161.775 206.532 M165.000 210.800 C 166.016 212.120,166.937 213.200,167.047 213.200 C 167.157 213.200,166.416 212.120,165.400 210.800 C 164.384 209.480,163.463 208.400,163.353 208.400 C 163.243 208.400,163.984 209.480,165.000 210.800 M196.555 210.119 C 197.403 211.153,198.180 212.000,198.282 212.000 C 198.555 212.000,196.021 208.860,195.477 208.524 C 195.222 208.366,195.707 209.084,196.555 210.119 M203.150 218.322 C 205.849 221.658,208.244 224.504,208.472 224.645 C 208.700 224.786,206.675 222.169,203.971 218.829 C 201.267 215.490,198.872 212.645,198.649 212.507 C 198.425 212.369,200.451 214.985,203.150 218.322 M167.940 214.716 C 168.433 215.409,169.044 216.104,169.297 216.260 C 169.550 216.417,169.354 215.977,168.860 215.284 C 168.367 214.591,167.756 213.896,167.503 213.740 C 167.250 213.583,167.446 214.023,167.940 214.716 M171.427 219.100 C 172.467 220.475,173.394 221.600,173.486 221.600 C 173.734 221.600,172.245 219.607,170.797 218.000 C 170.103 217.230,170.386 217.725,171.427 219.100 M177.027 226.300 C 178.067 227.675,178.994 228.800,179.086 228.800 C 179.334 228.800,177.845 226.807,176.397 225.200 C 175.703 224.430,175.986 224.925,177.027 226.300 M210.481 227.378 C 211.426 228.575,212.349 229.565,212.531 229.578 C 212.713 229.590,212.016 228.610,210.982 227.400 C 208.565 224.571,208.255 224.557,210.481 227.378 M214.440 232.000 C 215.387 233.210,216.215 234.275,216.281 234.367 C 216.346 234.458,216.396 234.368,216.392 234.167 C 216.387 233.965,215.559 232.900,214.551 231.800 L 212.719 229.800 214.440 232.000 M181.270 231.900 C 181.597 232.285,185.057 236.602,188.959 241.493 C 192.861 246.384,196.243 250.503,196.474 250.646 C 196.705 250.789,193.345 246.472,189.006 241.053 C 184.667 235.634,181.018 231.200,180.897 231.200 C 180.775 231.200,180.943 231.515,181.270 231.900 M218.399 236.799 C 219.319 237.898,220.281 238.926,220.536 239.083 C 220.791 239.239,220.123 238.340,219.051 237.084 C 217.980 235.828,217.018 234.800,216.914 234.800 C 216.810 234.800,217.479 235.699,218.399 236.799 M224.226 243.700 C 226.141 245.955,229.259 249.633,231.154 251.874 C 233.049 254.115,234.736 255.960,234.903 255.974 C 235.069 255.988,232.033 252.310,228.157 247.800 C 224.280 243.290,221.026 239.600,220.926 239.600 C 220.826 239.600,222.311 241.445,224.226 243.700 M147.379 260.400 C 147.379 267.550,147.433 270.475,147.499 266.900 C 147.566 263.325,147.566 257.475,147.499 253.900 C 147.433 250.325,147.379 253.250,147.379 260.400 M120.577 263.000 C 120.577 269.600,120.632 272.356,120.699 269.125 C 120.766 265.893,120.766 260.493,120.699 257.125 C 120.632 253.756,120.577 256.400,120.577 263.000 M197.996 252.794 C 198.690 253.671,199.467 254.518,199.723 254.676 C 199.978 254.834,199.493 254.116,198.645 253.081 C 197.797 252.047,197.020 251.200,196.918 251.200 C 196.816 251.200,197.301 251.918,197.996 252.794 M201.669 257.300 C 202.641 258.455,205.112 261.425,207.162 263.900 C 209.211 266.375,210.990 268.400,211.114 268.400 C 211.238 268.400,210.978 267.995,210.537 267.500 C 210.096 267.005,207.618 264.035,205.030 260.900 C 202.443 257.765,200.231 255.200,200.115 255.200 C 199.998 255.200,200.698 256.145,201.669 257.300 M237.643 259.200 C 239.032 260.850,240.221 262.275,240.284 262.367 C 240.348 262.458,240.477 262.456,240.572 262.361 C 240.667 262.267,239.478 260.842,237.931 259.195 L 235.117 256.200 237.643 259.200 M242.218 264.373 C 244.992 267.622,246.800 269.565,246.795 269.291 C 246.792 269.131,245.487 267.638,243.895 265.973 C 242.303 264.307,241.548 263.587,242.218 264.373 M213.018 271.000 C 214.051 272.210,214.974 273.200,215.067 273.200 C 215.383 273.200,211.803 268.845,211.469 268.822 C 211.287 268.810,211.984 269.790,213.018 271.000 M248.817 271.777 C 251.974 275.393,253.999 277.550,253.988 277.283 C 253.981 277.127,252.496 275.459,250.688 273.577 C 248.880 271.694,248.038 270.884,248.817 271.777 M215.600 273.838 C 215.600 274.169,223.180 283.142,223.752 283.488 C 223.999 283.637,223.287 282.688,222.171 281.380 C 221.055 280.071,219.120 277.783,217.871 276.295 C 216.622 274.807,215.600 273.701,215.600 273.838 M147.770 283.400 C 147.771 288.240,147.829 290.165,147.899 287.678 C 147.969 285.191,147.969 281.231,147.898 278.878 C 147.828 276.525,147.770 278.560,147.770 283.400 M120.170 284.400 C 120.170 289.130,120.228 291.065,120.298 288.700 C 120.369 286.335,120.369 282.465,120.298 280.100 C 120.228 277.735,120.170 279.670,120.170 284.400 M256.414 280.176 C 260.221 284.422,262.800 287.130,262.787 286.870 C 262.780 286.722,260.935 284.699,258.687 282.376 C 256.439 280.053,255.416 279.063,256.414 280.176 M226.002 286.402 C 228.864 289.706,229.413 289.918,226.763 286.695 C 225.573 285.249,224.447 284.051,224.260 284.033 C 224.074 284.015,224.857 285.081,226.002 286.402 M265.800 290.372 C 270.098 295.106,274.800 299.980,274.786 299.687 C 274.778 299.529,272.213 296.774,269.086 293.564 C 265.959 290.355,264.480 288.918,265.800 290.372 M230.802 292.002 C 231.946 293.323,233.089 294.530,233.341 294.683 C 233.594 294.837,232.743 293.757,231.451 292.282 C 230.159 290.807,229.016 289.600,228.912 289.600 C 228.807 289.600,229.657 290.681,230.802 292.002 M236.004 298.004 C 239.399 301.833,239.955 302.051,236.777 298.306 C 235.360 296.637,234.046 295.255,233.859 295.235 C 233.671 295.216,234.636 296.462,236.004 298.004 M277.400 302.800 C 278.706 304.120,279.865 305.200,279.975 305.200 C 280.085 305.200,279.106 304.120,277.800 302.800 C 276.494 301.480,275.335 300.400,275.225 300.400 C 275.115 300.400,276.094 301.480,277.400 302.800 M147.992 306.000 L 147.800 311.400 134.000 311.400 L 120.200 311.400 119.980 306.800 L 119.760 302.200 119.680 306.467 C 119.636 308.814,119.709 311.019,119.843 311.367 C 120.058 311.928,121.684 312.000,134.035 312.000 L 147.985 312.000 148.208 311.100 C 148.331 310.605,148.376 308.040,148.308 305.400 L 148.184 300.600 147.992 306.000 M240.259 302.903 C 240.886 303.619,243.179 306.238,245.353 308.723 C 250.083 314.128,252.070 315.398,254.859 314.797 L 256.600 314.422 254.830 314.582 C 251.803 314.856,250.035 313.605,244.457 307.240 C 241.739 304.138,239.425 301.600,239.316 301.600 C 239.206 301.600,239.631 302.186,240.259 302.903 M276.600 310.000 C 276.096 310.217,276.022 310.344,276.400 310.344 C 276.730 310.344,277.360 310.189,277.800 310.000 C 278.304 309.783,278.378 309.656,278.000 309.656 C 277.670 309.656,277.040 309.811,276.600 310.000 M273.400 310.800 C 272.381 311.238,273.432 311.238,274.800 310.800 C 275.604 310.543,275.643 310.477,275.000 310.468 C 274.560 310.462,273.840 310.611,273.400 310.800 M270.200 311.600 C 269.181 312.038,270.232 312.038,271.600 311.600 C 272.404 311.343,272.443 311.277,271.800 311.268 C 271.360 311.262,270.640 311.411,270.200 311.600 M266.600 312.400 C 265.581 312.838,266.632 312.838,268.000 312.400 C 268.804 312.143,268.843 312.077,268.200 312.068 C 267.760 312.062,267.040 312.211,266.600 312.400 M262.400 313.200 C 261.056 313.631,262.508 313.631,264.200 313.200 C 265.278 312.926,265.298 312.894,264.400 312.887 C 263.850 312.883,262.950 313.024,262.400 313.200 M258.000 314.000 C 256.656 314.431,258.108 314.431,259.800 314.000 C 260.878 313.726,260.898 313.694,260.000 313.687 C 259.450 313.683,258.550 313.824,258.000 314.000 " stroke="none" fill="#595959" fill-rule="evenodd"></path><path id="path3" d="M134.200 85.592 L 147.800 85.800 148.043 87.400 L 148.286 89.000 148.343 87.580 C 148.441 85.146,148.726 85.191,134.020 85.292 L 120.600 85.384 134.200 85.592 M241.362 86.100 C 240.601 86.999,240.601 86.999,241.431 86.300 C 242.313 85.558,272.400 85.176,272.400 85.907 C 272.400 86.076,271.576 87.156,270.569 88.307 C 269.562 89.458,268.887 90.391,269.069 90.381 C 269.671 90.347,272.871 86.038,272.609 85.615 C 272.439 85.340,267.246 85.200,257.238 85.200 L 242.124 85.200 241.362 86.100 M120.181 100.400 C 120.181 108.650,120.234 112.025,120.299 107.900 C 120.364 103.775,120.364 97.025,120.299 92.900 C 120.234 88.775,120.181 92.150,120.181 100.400 M240.115 87.700 C 238.381 89.967,237.466 91.320,237.809 91.113 C 238.281 90.827,240.937 87.200,240.674 87.200 C 240.577 87.200,240.326 87.425,240.115 87.700 M267.375 92.100 L 266.200 93.400 267.500 92.225 C 268.215 91.579,268.800 90.994,268.800 90.925 C 268.800 90.616,268.470 90.888,267.375 92.100 M236.115 93.300 C 234.381 95.567,233.466 96.920,233.809 96.713 C 234.281 96.427,236.937 92.800,236.674 92.800 C 236.577 92.800,236.326 93.025,236.115 93.300 M264.975 94.900 L 263.800 96.200 265.100 95.025 C 265.815 94.379,266.400 93.794,266.400 93.725 C 266.400 93.416,266.070 93.688,264.975 94.900 M262.575 97.700 L 261.400 99.000 262.700 97.825 C 263.415 97.179,264.000 96.594,264.000 96.525 C 264.000 96.216,263.670 96.488,262.575 97.700 M232.115 98.900 C 230.381 101.167,229.466 102.520,229.809 102.313 C 230.281 102.027,232.937 98.400,232.674 98.400 C 232.577 98.400,232.326 98.625,232.115 98.900 M259.848 100.643 C 258.264 102.549,258.683 102.622,260.346 100.731 C 261.087 99.889,261.537 99.213,261.346 99.229 C 261.156 99.245,260.482 99.881,259.848 100.643 M255.815 105.400 C 254.560 106.830,253.683 107.988,253.866 107.973 C 254.207 107.946,258.590 102.800,258.272 102.800 C 258.176 102.800,257.070 103.970,255.815 105.400 M226.605 106.300 C 225.354 107.777,225.125 108.171,225.965 107.400 C 227.205 106.262,229.027 104.000,228.704 104.000 C 228.621 104.000,227.676 105.035,226.605 106.300 M252.175 109.700 L 251.000 111.000 252.300 109.825 C 253.015 109.179,253.600 108.594,253.600 108.525 C 253.600 108.216,253.270 108.488,252.175 109.700 M222.818 110.534 L 221.437 112.200 223.118 110.619 C 224.043 109.749,224.800 108.984,224.800 108.919 C 224.800 108.459,223.994 109.116,222.818 110.534 M249.775 112.500 L 248.600 113.800 249.900 112.625 C 250.615 111.979,251.200 111.394,251.200 111.325 C 251.200 111.016,250.870 111.288,249.775 112.500 M220.175 113.700 L 219.000 115.000 220.300 113.825 C 221.015 113.179,221.600 112.594,221.600 112.525 C 221.600 112.216,221.270 112.488,220.175 113.700 M147.783 130.200 C 147.783 139.440,147.836 143.163,147.900 138.473 C 147.964 133.783,147.964 126.223,147.899 121.673 C 147.835 117.123,147.783 120.960,147.783 130.200 M246.126 116.627 C 244.847 118.071,243.731 119.449,243.647 119.687 C 243.562 119.925,244.183 119.328,245.026 118.360 C 245.869 117.392,247.099 116.015,247.758 115.300 C 248.417 114.585,248.843 114.000,248.704 114.000 C 248.565 114.000,247.405 115.182,246.126 116.627 M217.225 116.969 L 215.850 118.600 217.405 117.113 C 218.260 116.296,218.879 115.562,218.780 115.483 C 218.681 115.403,217.981 116.072,217.225 116.969 M120.586 136.200 C 120.586 147.200,120.637 151.642,120.700 146.072 C 120.763 140.502,120.762 131.502,120.700 126.072 C 120.637 120.642,120.585 125.200,120.586 136.200 M214.181 120.500 L 212.600 122.200 214.300 120.619 C 215.881 119.148,216.184 118.800,215.881 118.800 C 215.816 118.800,215.051 119.565,214.181 120.500 M240.615 123.000 C 239.360 124.430,238.483 125.588,238.666 125.573 C 239.007 125.546,243.390 120.400,243.072 120.400 C 242.976 120.400,241.870 121.570,240.615 123.000 M211.177 123.900 C 208.201 127.124,207.019 128.509,207.455 128.264 C 207.964 127.978,212.974 122.400,212.722 122.400 C 212.634 122.400,211.939 123.075,211.177 123.900 M236.975 127.300 L 235.800 128.600 237.100 127.425 C 237.815 126.779,238.400 126.194,238.400 126.125 C 238.400 125.816,238.070 126.088,236.975 127.300 M205.225 130.569 L 203.850 132.200 205.405 130.713 C 206.260 129.896,206.879 129.162,206.780 129.083 C 206.681 129.003,205.981 129.672,205.225 130.569 M234.575 130.100 L 233.400 131.400 234.700 130.225 C 235.415 129.579,236.000 128.994,236.000 128.925 C 236.000 128.616,235.670 128.888,234.575 130.100 M230.926 134.227 C 229.647 135.671,228.531 137.049,228.447 137.287 C 228.362 137.525,228.983 136.928,229.826 135.960 C 230.669 134.992,231.899 133.615,232.558 132.900 C 233.217 132.185,233.643 131.600,233.504 131.600 C 233.365 131.600,232.205 132.782,230.926 134.227 M202.575 133.700 L 201.400 135.000 202.700 133.825 C 203.415 133.179,204.000 132.594,204.000 132.525 C 204.000 132.216,203.670 132.488,202.575 133.700 M197.749 139.080 C 196.237 140.774,195.205 142.036,195.455 141.884 C 196.025 141.539,200.952 136.000,200.690 136.000 C 200.585 136.000,199.261 137.386,197.749 139.080 M225.415 140.600 C 224.160 142.030,223.283 143.188,223.466 143.173 C 223.807 143.146,228.190 138.000,227.872 138.000 C 227.776 138.000,226.670 139.170,225.415 140.600 M193.254 144.034 C 192.513 144.895,192.063 145.585,192.254 145.566 C 192.444 145.548,193.206 144.828,193.946 143.966 C 194.687 143.105,195.137 142.415,194.946 142.434 C 194.756 142.452,193.994 143.172,193.254 144.034 M221.775 144.900 L 220.600 146.200 221.900 145.025 C 222.615 144.379,223.200 143.794,223.200 143.725 C 223.200 143.416,222.870 143.688,221.775 144.900 M190.575 147.300 L 189.400 148.600 190.700 147.425 C 191.912 146.330,192.184 146.000,191.875 146.000 C 191.806 146.000,191.221 146.585,190.575 147.300 M219.375 147.700 L 218.200 149.000 219.500 147.825 C 220.215 147.179,220.800 146.594,220.800 146.525 C 220.800 146.216,220.470 146.488,219.375 147.700 M147.381 162.400 C 147.381 170.650,147.434 174.025,147.499 169.900 C 147.564 165.775,147.564 159.025,147.499 154.900 C 147.434 150.775,147.381 154.150,147.381 162.400 M187.625 150.569 L 186.250 152.200 187.805 150.713 C 188.660 149.896,189.279 149.162,189.180 149.083 C 189.081 149.003,188.381 149.672,187.625 150.569 M215.726 151.827 C 214.447 153.271,213.331 154.649,213.247 154.887 C 213.162 155.125,213.783 154.528,214.626 153.560 C 215.469 152.592,216.699 151.215,217.358 150.500 C 218.017 149.785,218.443 149.200,218.304 149.200 C 218.165 149.200,217.005 150.382,215.726 151.827 M184.581 154.100 L 183.000 155.800 184.700 154.219 C 186.281 152.748,186.584 152.400,186.281 152.400 C 186.216 152.400,185.451 153.165,184.581 154.100 M210.149 158.282 C 208.857 159.757,208.006 160.837,208.259 160.683 C 208.824 160.339,212.953 155.600,212.688 155.600 C 212.584 155.600,211.441 156.807,210.149 158.282 M181.577 157.500 C 178.601 160.724,177.419 162.109,177.855 161.864 C 178.364 161.578,183.374 156.000,183.122 156.000 C 183.034 156.000,182.339 156.675,181.577 157.500 M206.575 162.500 L 205.400 163.800 206.700 162.625 C 207.415 161.979,208.000 161.394,208.000 161.325 C 208.000 161.016,207.670 161.288,206.575 162.500 M175.618 164.134 L 174.237 165.800 175.918 164.219 C 176.843 163.349,177.600 162.584,177.600 162.519 C 177.600 162.059,176.794 162.716,175.618 164.134 M204.175 165.300 L 203.000 166.600 204.300 165.425 C 205.015 164.779,205.600 164.194,205.600 164.125 C 205.600 163.816,205.270 164.088,204.175 165.300 M172.975 167.300 L 171.800 168.600 173.100 167.425 C 174.312 166.330,174.584 166.000,174.275 166.000 C 174.206 166.000,173.621 166.585,172.975 167.300 M200.526 169.427 C 199.247 170.871,198.131 172.249,198.047 172.487 C 197.962 172.725,198.583 172.128,199.426 171.160 C 200.269 170.192,201.499 168.815,202.158 168.100 C 202.817 167.385,203.243 166.800,203.104 166.800 C 202.965 166.800,201.805 167.982,200.526 169.427 M170.025 170.569 L 168.650 172.200 170.205 170.713 C 171.060 169.896,171.679 169.162,171.580 169.083 C 171.481 169.003,170.781 169.672,170.025 170.569 M166.981 174.100 L 165.400 175.800 167.100 174.219 C 168.681 172.748,168.984 172.400,168.681 172.400 C 168.616 172.400,167.851 173.165,166.981 174.100 M194.949 175.882 C 193.657 177.357,192.806 178.437,193.059 178.283 C 193.624 177.939,197.753 173.200,197.488 173.200 C 197.384 173.200,196.241 174.407,194.949 175.882 M163.977 177.500 C 161.001 180.724,159.819 182.109,160.255 181.864 C 160.764 181.578,165.774 176.000,165.522 176.000 C 165.434 176.000,164.739 176.675,163.977 177.500 M191.375 180.100 L 190.200 181.400 191.500 180.225 C 192.215 179.579,192.800 178.994,192.800 178.925 C 192.800 178.616,192.470 178.888,191.375 180.100 M188.975 182.900 L 187.800 184.200 189.100 183.025 C 190.312 181.930,190.584 181.600,190.275 181.600 C 190.206 181.600,189.621 182.185,188.975 182.900 M158.025 184.169 L 156.650 185.800 158.205 184.313 C 159.060 183.496,159.679 182.762,159.580 182.683 C 159.481 182.603,158.781 183.272,158.025 184.169 M185.326 187.027 C 184.047 188.471,182.931 189.849,182.847 190.087 C 182.762 190.325,183.383 189.728,184.226 188.760 C 185.069 187.792,186.299 186.415,186.958 185.700 C 187.617 184.985,188.043 184.400,187.904 184.400 C 187.765 184.400,186.605 185.582,185.326 187.027 M154.981 187.700 L 153.400 189.400 155.100 187.819 C 156.035 186.949,156.800 186.184,156.800 186.119 C 156.800 185.816,156.452 186.119,154.981 187.700 M120.987 212.600 C 120.987 225.140,121.038 230.212,121.100 223.872 C 121.162 217.531,121.162 207.271,121.100 201.072 C 121.038 194.872,120.987 200.060,120.987 212.600 M181.801 191.198 C 181.577 191.562,183.432 194.400,183.895 194.400 C 184.005 194.400,183.614 193.769,183.025 192.998 C 182.437 192.226,182.066 191.416,182.201 191.198 C 182.337 190.979,182.357 190.800,182.247 190.800 C 182.137 190.800,181.937 190.979,181.801 191.198 M152.034 191.856 C 152.015 192.326,152.315 193.055,152.700 193.475 C 153.085 193.894,153.253 194.016,153.072 193.744 C 152.892 193.473,152.592 192.745,152.407 192.126 C 152.133 191.213,152.062 191.162,152.034 191.856 M154.391 195.988 C 154.857 196.641,155.442 197.302,155.691 197.456 C 155.941 197.611,155.641 197.076,155.025 196.268 C 153.688 194.515,153.184 194.292,154.391 195.988 M188.024 199.967 C 189.429 201.780,190.756 203.373,190.973 203.507 C 191.190 203.641,190.223 202.271,188.823 200.461 C 187.424 198.652,186.096 197.060,185.874 196.922 C 185.651 196.785,186.619 198.155,188.024 199.967 M157.591 200.388 C 158.057 201.041,158.642 201.702,158.891 201.856 C 159.141 202.011,158.841 201.476,158.225 200.668 C 156.888 198.915,156.384 198.692,157.591 200.388 M146.983 218.600 C 146.983 227.840,147.036 231.563,147.100 226.873 C 147.164 222.183,147.164 214.623,147.099 210.073 C 147.035 205.523,146.983 209.360,146.983 218.600 M159.991 203.588 C 160.457 204.241,161.042 204.902,161.291 205.056 C 161.541 205.211,161.241 204.676,160.625 203.868 C 159.288 202.115,158.784 201.892,159.991 203.588 M162.391 206.788 C 162.857 207.441,163.442 208.102,163.691 208.256 C 163.941 208.411,163.641 207.876,163.025 207.068 C 161.688 205.315,161.184 205.092,162.391 206.788 M166.391 211.988 C 166.857 212.641,167.442 213.302,167.691 213.456 C 167.941 213.611,167.641 213.076,167.025 212.268 C 165.688 210.515,165.184 210.292,166.391 211.988 M168.791 215.188 C 169.257 215.841,169.842 216.502,170.091 216.656 C 170.341 216.811,170.041 216.276,169.425 215.468 C 168.088 213.715,167.584 213.492,168.791 215.188 M202.155 217.719 C 203.003 218.753,203.780 219.600,203.882 219.600 C 204.155 219.600,201.621 216.460,201.077 216.124 C 200.822 215.966,201.307 216.684,202.155 217.719 M172.791 220.388 C 173.257 221.041,173.842 221.702,174.091 221.856 C 174.341 222.011,174.041 221.476,173.425 220.668 C 172.088 218.915,171.584 218.692,172.791 220.388 M204.400 220.244 C 204.400 220.452,205.227 221.517,206.237 222.611 L 208.075 224.600 206.357 222.400 C 205.412 221.190,204.585 220.125,204.519 220.033 C 204.454 219.942,204.400 220.037,204.400 220.244 M177.800 226.800 C 178.816 228.120,179.737 229.200,179.847 229.200 C 179.957 229.200,179.216 228.120,178.200 226.800 C 177.184 225.480,176.263 224.400,176.153 224.400 C 176.043 224.400,176.784 225.480,177.800 226.800 M211.349 228.916 C 212.420 230.172,213.382 231.200,213.486 231.200 C 213.754 231.200,210.423 227.261,209.864 226.917 C 209.609 226.761,210.277 227.660,211.349 228.916 M215.600 233.864 C 215.600 234.082,216.095 234.697,216.700 235.230 L 217.800 236.200 216.800 235.000 C 216.250 234.340,215.755 233.725,215.700 233.633 C 215.645 233.542,215.600 233.645,215.600 233.864 M146.550 239.800 C 146.551 242.220,146.616 243.158,146.696 241.885 C 146.776 240.612,146.775 238.632,146.694 237.485 C 146.614 236.338,146.549 237.380,146.550 239.800 M186.039 237.200 C 186.763 238.190,187.410 239.075,187.477 239.167 C 187.545 239.258,187.597 239.168,187.594 238.967 C 187.591 238.765,186.944 237.880,186.156 237.000 L 184.724 235.400 186.039 237.200 M121.101 244.000 C 120.937 248.510,120.830 255.440,120.865 259.400 C 120.912 264.826,121.010 263.151,121.266 252.600 C 121.452 244.900,121.558 237.970,121.502 237.200 C 121.446 236.430,121.265 239.490,121.101 244.000 M220.600 240.000 C 222.280 241.980,223.744 243.600,223.854 243.600 C 223.964 243.600,222.680 241.980,221.000 240.000 C 219.320 238.020,217.856 236.400,217.746 236.400 C 217.636 236.400,218.920 238.020,220.600 240.000 M189.877 242.045 C 190.934 243.389,192.250 245.095,192.800 245.835 C 193.350 246.574,193.938 247.184,194.106 247.190 C 194.274 247.195,193.033 245.490,191.348 243.400 C 189.664 241.310,188.210 239.600,188.119 239.600 C 188.028 239.600,188.819 240.700,189.877 242.045 M224.000 244.125 C 224.000 244.194,224.585 244.779,225.300 245.425 L 226.600 246.600 225.425 245.300 C 224.330 244.088,224.000 243.816,224.000 244.125 M146.973 254.600 C 146.973 260.100,147.030 262.405,147.099 259.723 C 147.168 257.041,147.168 252.541,147.099 249.723 C 147.030 246.905,146.974 249.100,146.973 254.600 M226.400 246.925 C 226.400 246.994,226.985 247.579,227.700 248.225 L 229.000 249.400 227.825 248.100 C 226.730 246.888,226.400 246.616,226.400 246.925 M228.800 249.725 C 228.800 249.794,229.385 250.379,230.100 251.025 L 231.400 252.200 230.225 250.900 C 229.130 249.688,228.800 249.416,228.800 249.725 M231.200 252.525 C 231.200 252.594,231.785 253.179,232.500 253.825 L 233.800 255.000 232.625 253.700 C 231.530 252.488,231.200 252.216,231.200 252.525 M201.522 256.505 C 202.899 258.190,204.244 259.703,204.510 259.868 C 204.776 260.032,203.838 258.770,202.426 257.064 C 201.015 255.357,199.670 253.844,199.439 253.700 C 199.208 253.557,200.145 254.819,201.522 256.505 M234.012 255.506 C 234.027 255.897,236.418 258.515,236.597 258.337 C 236.673 258.260,236.120 257.526,235.368 256.705 C 234.616 255.883,234.005 255.344,234.012 255.506 M236.800 258.925 C 236.800 258.994,237.385 259.579,238.100 260.225 L 239.400 261.400 238.225 260.100 C 237.130 258.888,236.800 258.616,236.800 258.925 M239.600 261.855 C 239.600 262.068,240.275 262.863,241.100 263.622 L 242.600 265.000 241.200 263.404 C 240.430 262.527,239.755 261.732,239.700 261.638 C 239.645 261.544,239.600 261.641,239.600 261.855 M207.234 263.447 C 207.765 264.133,208.280 264.623,208.379 264.535 C 208.477 264.447,208.043 263.886,207.413 263.288 L 206.269 262.200 207.234 263.447 M243.800 266.800 C 244.659 267.680,245.452 268.400,245.562 268.400 C 245.672 268.400,245.059 267.680,244.200 266.800 C 243.341 265.920,242.548 265.200,242.438 265.200 C 242.328 265.200,242.941 265.920,243.800 266.800 M211.234 268.247 C 211.765 268.933,212.280 269.423,212.379 269.335 C 212.477 269.247,212.043 268.686,211.413 268.088 L 210.269 267.000 211.234 268.247 M247.000 270.400 C 247.859 271.280,248.637 272.000,248.728 272.000 C 249.065 272.000,246.186 268.866,245.819 268.834 C 245.609 268.815,246.141 269.520,247.000 270.400 M215.234 273.047 C 215.765 273.733,216.280 274.223,216.379 274.135 C 216.477 274.047,216.043 273.486,215.413 272.888 L 214.269 271.800 215.234 273.047 M250.200 274.000 C 251.059 274.880,251.852 275.600,251.962 275.600 C 252.072 275.600,251.459 274.880,250.600 274.000 C 249.741 273.120,248.948 272.400,248.838 272.400 C 248.728 272.400,249.341 273.120,250.200 274.000 M218.399 276.799 C 219.319 277.898,220.281 278.926,220.536 279.083 C 220.791 279.239,220.123 278.340,219.051 277.084 C 217.980 275.828,217.018 274.800,216.914 274.800 C 216.810 274.800,217.479 275.699,218.399 276.799 M254.400 278.593 C 255.390 279.688,256.245 280.663,256.300 280.759 C 256.355 280.855,256.486 280.847,256.591 280.743 C 256.696 280.638,255.841 279.663,254.691 278.576 L 252.600 276.600 254.400 278.593 M147.372 288.600 C 147.372 293.660,147.429 295.675,147.499 293.077 C 147.569 290.480,147.568 286.340,147.498 283.877 C 147.428 281.415,147.371 283.540,147.372 288.600 M221.823 280.778 C 223.908 283.369,225.199 284.801,225.190 284.514 C 225.185 284.341,224.240 283.200,223.090 281.978 C 221.941 280.755,221.370 280.215,221.823 280.778 M120.570 289.400 C 120.571 294.240,120.629 296.165,120.699 293.678 C 120.769 291.191,120.769 287.231,120.698 284.878 C 120.628 282.525,120.570 284.560,120.570 289.400 M258.600 283.200 C 259.683 284.300,260.660 285.200,260.770 285.200 C 260.880 285.200,260.083 284.300,259.000 283.200 C 257.917 282.100,256.940 281.200,256.830 281.200 C 256.720 281.200,257.517 282.100,258.600 283.200 M226.264 286.100 C 226.705 286.595,228.807 289.033,230.933 291.518 C 233.060 294.003,234.800 295.925,234.800 295.788 C 234.800 295.452,225.978 285.200,225.689 285.200 C 225.563 285.200,225.822 285.605,226.264 286.100 M261.271 285.981 C 261.454 286.480,266.068 291.265,266.220 291.113 C 266.289 291.044,265.175 289.782,263.744 288.308 C 262.314 286.835,261.201 285.787,261.271 285.981 M269.000 294.400 C 270.528 295.940,271.869 297.200,271.979 297.200 C 272.089 297.200,270.928 295.940,269.400 294.400 C 267.872 292.860,266.531 291.600,266.421 291.600 C 266.311 291.600,267.472 292.860,269.000 294.400 M235.200 296.525 C 235.200 296.594,235.785 297.179,236.500 297.825 L 237.800 299.000 236.625 297.700 C 235.530 296.488,235.200 296.216,235.200 296.525 M272.400 297.914 C 272.400 298.044,274.020 299.802,276.000 301.821 C 278.191 304.056,279.600 305.816,279.600 306.320 C 279.600 307.684,278.893 309.120,278.123 309.320 C 277.538 309.472,277.524 309.516,278.051 309.554 C 278.952 309.618,279.597 308.730,279.870 307.049 C 280.091 305.686,279.937 305.457,276.250 301.652 C 274.133 299.466,272.400 297.784,272.400 297.914 M147.689 304.500 L 147.600 311.200 134.010 311.200 L 120.420 311.200 120.294 304.700 L 120.168 298.200 120.184 304.800 L 120.200 311.400 133.911 311.505 C 144.884 311.590,147.661 311.506,147.821 311.089 C 147.931 310.802,147.966 307.695,147.900 304.184 L 147.778 297.800 147.689 304.500 M237.600 299.325 C 237.600 299.394,238.185 299.979,238.900 300.625 L 240.200 301.800 239.025 300.500 C 237.930 299.288,237.600 299.016,237.600 299.325 M242.549 304.920 C 244.061 306.614,245.385 308.000,245.490 308.000 C 245.752 308.000,240.825 302.461,240.255 302.116 C 240.005 301.964,241.037 303.226,242.549 304.920 M247.000 310.000 C 247.859 310.880,248.652 311.600,248.762 311.600 C 248.872 311.600,248.259 310.880,247.400 310.000 C 246.541 309.120,245.748 308.400,245.638 308.400 C 245.528 308.400,246.141 309.120,247.000 310.000 M275.000 310.000 C 274.496 310.217,274.422 310.344,274.800 310.344 C 275.130 310.344,275.760 310.189,276.200 310.000 C 276.704 309.783,276.778 309.656,276.400 309.656 C 276.070 309.656,275.440 309.811,275.000 310.000 M272.000 310.800 C 271.176 311.064,271.141 311.126,271.800 311.154 C 272.240 311.173,272.870 311.013,273.200 310.800 C 273.901 310.347,273.414 310.347,272.000 310.800 M268.400 311.600 C 267.596 311.857,267.557 311.923,268.200 311.932 C 268.640 311.938,269.360 311.789,269.800 311.600 C 270.819 311.162,269.768 311.162,268.400 311.600 M264.600 312.400 C 263.581 312.838,264.632 312.838,266.000 312.400 C 266.804 312.143,266.843 312.077,266.200 312.068 C 265.760 312.062,265.040 312.211,264.600 312.400 M260.400 313.200 C 259.608 313.454,259.567 313.520,260.200 313.520 C 260.640 313.520,261.450 313.376,262.000 313.200 C 262.792 312.946,262.833 312.880,262.200 312.880 C 261.760 312.880,260.950 313.024,260.400 313.200 M255.800 314.000 C 254.722 314.274,254.702 314.306,255.600 314.313 C 256.150 314.317,257.050 314.176,257.600 314.000 C 258.944 313.569,257.492 313.569,255.800 314.000 " stroke="none" fill="#848484" fill-rule="evenodd"></path><path id="path4" d="M148.158 94.200 C 148.158 97.280,148.221 98.487,148.297 96.882 C 148.373 95.278,148.373 92.758,148.296 91.282 C 148.219 89.807,148.157 91.120,148.158 94.200 M120.164 121.800 C 120.163 125.540,120.223 127.124,120.297 125.320 C 120.371 123.515,120.372 120.455,120.298 118.520 C 120.225 116.584,120.164 118.060,120.164 121.800 M147.755 151.800 C 147.756 154.660,147.820 155.778,147.897 154.283 C 147.974 152.789,147.974 150.449,147.896 149.083 C 147.818 147.718,147.755 148.940,147.755 151.800 M120.566 163.200 C 120.566 167.270,120.625 168.935,120.698 166.900 C 120.771 164.865,120.771 161.535,120.698 159.500 C 120.625 157.465,120.566 159.130,120.566 163.200 M147.357 182.400 C 147.357 185.370,147.420 186.585,147.497 185.100 C 147.574 183.615,147.574 181.185,147.497 179.700 C 147.420 178.215,147.357 179.430,147.357 182.400 M120.960 241.000 C 120.961 244.300,121.022 245.597,121.098 243.882 C 121.173 242.167,121.172 239.467,121.097 237.882 C 121.021 236.297,120.959 237.700,120.960 241.000 M146.954 240.000 C 146.954 242.750,147.018 243.875,147.096 242.500 C 147.174 241.125,147.174 238.875,147.096 237.500 C 147.018 236.125,146.954 237.250,146.954 240.000 M147.340 276.400 C 147.340 278.270,147.409 279.035,147.493 278.100 C 147.577 277.165,147.577 275.635,147.493 274.700 C 147.409 273.765,147.340 274.530,147.340 276.400 M120.537 277.800 C 120.539 279.560,120.609 280.230,120.693 279.289 C 120.778 278.349,120.777 276.909,120.691 276.089 C 120.605 275.270,120.536 276.040,120.537 277.800 M147.737 295.000 C 147.739 296.760,147.809 297.430,147.893 296.489 C 147.978 295.549,147.977 294.109,147.891 293.289 C 147.805 292.470,147.736 293.240,147.737 295.000 M120.134 295.600 C 120.134 297.250,120.205 297.925,120.291 297.100 C 120.378 296.275,120.378 294.925,120.291 294.100 C 120.205 293.275,120.134 293.950,120.134 295.600 " stroke="none" fill="#7c7c7c" fill-rule="evenodd"></path></g></svg>