<?xml version="1.0" standalone="no"?>
<!DOCTYPE svg PUBLIC "-//W3C//DTD SVG 20010904//EN"
 "http://www.w3.org/TR/2001/REC-SVG-20010904/DTD/svg10.dtd">
<svg version="1.0" xmlns="http://www.w3.org/2000/svg"
 width="512.000000pt" height="512.000000pt" viewBox="0 0 512.000000 512.000000"
 preserveAspectRatio="xMidYMid meet">

<g transform="translate(0.000000,512.000000) scale(0.100000,-0.100000)"
fill="#000000" stroke="none">
<path d="M2420 5111 c-80 -25 -131 -76 -156 -158 -33 -106 15 -217 114 -267
l32 -17 0 -394 0 -395 -102 0 -103 0 -132 132 -133 133 1 185 0 185 47 30 c33
21 55 46 75 85 25 48 28 63 24 117 -10 129 -99 213 -225 213 -77 0 -125 -22
-175 -81 -91 -106 -65 -264 57 -340 l46 -29 0 -216 0 -217 97 -98 97 -99 -270
0 c-162 0 -284 -4 -308 -11 l-39 -11 -154 154 c-148 149 -154 155 -143 182 25
67 0 177 -53 234 -41 44 -97 66 -168 67 -56 0 -73 -4 -115 -30 -30 -19 -60
-49 -79 -79 -53 -87 -37 -215 37 -283 57 -53 167 -78 234 -53 27 11 33 5 181
-143 l154 -153 -10 -45 c-6 -24 -11 -85 -11 -136 0 -82 3 -95 23 -116 33 -38
70 -42 104 -13 27 23 28 28 31 133 3 80 8 112 19 126 15 16 77 17 1038 17 924
0 1023 -2 1029 -16 3 -9 6 -42 6 -75 l0 -59 -199 0 c-110 0 -207 -3 -216 -6
-8 -4 -22 -19 -31 -35 -13 -25 -13 -33 0 -64 8 -19 16 -36 18 -37 2 -1 82 -4
178 -7 l175 -6 0 -855 0 -855 -636 -3 c-626 -2 -636 -2 -655 -23 -26 -29 -24
-87 5 -110 22 -18 53 -19 692 -19 l669 0 0 -59 c0 -33 -3 -66 -6 -75 -6 -14
-105 -16 -1029 -16 -977 0 -1023 1 -1038 18 -16 17 -17 93 -17 886 0 944 1
928 -55 942 -34 9 -80 -12 -94 -42 -6 -14 -11 -61 -11 -104 l0 -80 -178 0
-178 0 -67 68 c-66 66 -67 68 -57 102 23 80 -4 184 -61 237 -140 128 -366 40
-386 -149 -6 -60 18 -131 60 -177 53 -57 173 -87 243 -61 26 10 32 6 116 -77
l88 -88 210 -3 210 -3 0 -155 0 -154 -400 0 c-349 0 -400 2 -400 15 0 24 -72
97 -115 116 -119 54 -270 -11 -311 -133 -42 -128 24 -255 153 -294 98 -30 213
15 261 104 l23 42 395 0 394 0 0 -102 0 -103 -132 -132 -133 -133 -185 1 -185
0 -30 47 c-44 69 -118 105 -202 99 -131 -10 -213 -97 -213 -226 1 -72 26 -127
80 -174 107 -91 265 -66 340 56 l30 47 216 0 217 0 98 97 99 97 0 -265 c0
-145 5 -284 11 -308 l10 -45 -154 -153 c-148 -148 -154 -154 -181 -143 -67 25
-177 0 -234 -53 -44 -41 -66 -97 -67 -168 0 -56 4 -73 30 -115 19 -30 49 -60
79 -79 87 -53 215 -37 283 37 53 57 78 167 53 234 -11 27 -5 33 143 181 l153
154 45 -10 c25 -6 183 -11 367 -11 l322 0 0 -178 0 -178 -68 -67 c-64 -64 -70
-67 -96 -57 -70 26 -190 -4 -243 -61 -128 -140 -40 -366 149 -386 60 -6 131
18 177 60 57 53 87 173 61 243 -10 26 -6 32 77 116 l88 88 3 210 3 210 155 0
154 0 0 -400 c0 -349 -2 -400 -15 -400 -24 0 -97 -72 -116 -115 -54 -119 11
-270 133 -311 91 -30 199 0 253 70 91 119 56 285 -72 350 l-33 17 0 394 0 395
102 0 103 0 132 -132 133 -133 -1 -185 0 -185 -47 -30 c-69 -44 -105 -118 -99
-202 9 -127 99 -213 222 -213 76 0 130 25 177 80 92 107 67 265 -56 341 l-46
29 0 216 0 217 -97 98 -97 99 265 0 c145 0 284 5 308 11 l45 10 153 -154 c148
-148 154 -154 143 -181 -25 -67 0 -177 53 -234 41 -44 97 -66 168 -67 56 0 73
4 115 30 30 19 60 49 79 79 53 87 37 215 -37 283 -57 53 -167 78 -234 53 -27
-11 -33 -5 -181 143 l-154 153 10 45 c6 25 11 183 11 367 l0 322 178 0 178 0
67 -68 c64 -64 67 -70 57 -96 -25 -67 0 -177 53 -234 41 -44 97 -66 168 -67
56 0 73 4 115 30 124 77 149 247 51 354 -53 57 -173 87 -243 61 -26 -10 -32
-6 -116 77 l-88 88 -210 3 -210 3 0 155 0 154 400 0 c349 0 400 -2 400 -15 0
-24 72 -97 115 -116 81 -37 183 -20 250 43 111 102 92 281 -39 362 -40 25 -58
30 -114 30 -87 1 -150 -33 -195 -105 l-30 -49 -393 0 -394 0 0 103 0 102 133
133 132 132 185 -1 185 0 30 -47 c44 -69 118 -105 202 -99 127 9 213 99 213
222 0 76 -25 130 -80 177 -107 92 -265 67 -341 -56 l-29 -46 -216 0 -217 0
-98 -97 -99 -97 0 265 c0 145 -5 284 -11 308 l-10 45 154 153 c148 148 154
154 181 143 67 -25 177 0 234 53 44 41 66 97 67 168 0 56 -4 73 -30 115 -19
30 -49 60 -79 79 -87 53 -215 37 -283 -37 -53 -57 -78 -167 -53 -234 11 -27 5
-33 -143 -182 l-154 -154 -39 11 c-24 7 -162 11 -366 11 l-328 0 0 178 0 178
68 67 c66 66 68 67 102 57 76 -22 148 -7 217 46 51 39 77 97 78 175 0 56 -4
73 -30 115 -77 124 -247 149 -354 51 -57 -53 -87 -173 -61 -243 10 -26 6 -32
-77 -116 l-88 -88 -3 -210 -3 -210 -155 0 -154 0 0 400 c0 325 2 400 13 400
24 0 99 73 118 114 37 82 20 184 -42 251 -58 63 -151 90 -229 66z m115 -166
c16 -15 25 -36 25 -55 0 -36 -38 -80 -69 -80 -83 0 -116 97 -49 144 32 23 65
20 93 -9z m-616 -161 c12 -15 21 -37 21 -49 0 -12 -9 -34 -21 -49 -47 -59
-149 -15 -135 59 13 65 96 89 135 39z m1392 -153 c33 -33 35 -50 14 -91 -30
-57 -125 -47 -141 15 -10 38 3 73 34 89 40 22 60 19 93 -13z m-2422 -296 c89
-45 20 -175 -74 -139 -18 7 -45 55 -45 79 0 21 54 75 75 75 9 0 29 -7 44 -15z
m3432 -14 c33 -33 35 -50 14 -90 -24 -48 -81 -56 -120 -16 -40 39 -31 96 20
123 33 18 55 14 86 -17z m-3741 -996 c57 -30 47 -125 -15 -141 -39 -10 -73 4
-90 36 -21 41 -19 58 14 91 33 33 50 35 91 14z m4213 -16 c26 -32 22 -83 -9
-108 -15 -12 -37 -21 -49 -21 -70 0 -103 97 -48 140 33 26 79 21 106 -11z
m155 -626 c65 -72 -45 -167 -113 -98 -39 39 -26 106 24 124 35 12 61 5 89 -26z
m-4663 -148 c31 -30 32 -66 2 -101 -33 -38 -81 -37 -115 1 -64 75 44 170 113
100z m149 -616 c59 -47 15 -149 -59 -135 -65 13 -89 96 -39 135 15 12 37 21
49 21 12 0 34 -9 49 -21z m4196 1 c41 -41 35 -93 -15 -126 -47 -31 -115 9
-115 66 0 66 85 105 130 60z m-3725 -1015 c46 -45 24 -115 -40 -131 -47 -12
-103 44 -91 92 16 63 87 84 131 39z m3415 5 c41 -41 35 -93 -15 -126 -47 -31
-115 9 -115 66 0 66 85 105 130 60z m-2405 -315 c46 -45 24 -115 -40 -131 -47
-12 -103 44 -91 92 16 63 87 84 131 39z m1405 -162 c41 -52 3 -123 -65 -123
-38 0 -75 37 -75 75 0 70 97 103 140 48z m-646 -134 c52 -24 53 -101 2 -134
-76 -50 -156 56 -91 120 26 27 51 31 89 14z"/>
<path d="M1575 3545 l-25 -24 0 -961 0 -961 25 -24 c23 -24 29 -25 165 -25
136 0 142 1 165 25 30 29 32 64 5 98 -19 24 -27 26 -113 29 l-92 3 0 855 0
855 562 5 c547 5 563 6 577 25 25 33 20 80 -10 104 -26 21 -35 21 -631 21
l-604 0 -24 -25z"/>
<path d="M2350 3063 c-34 -18 -39 -27 -207 -468 -95 -247 -172 -461 -173 -475
-1 -58 57 -93 109 -66 22 12 35 34 63 108 l35 93 214 3 214 2 34 -89 c18 -49
41 -97 52 -107 23 -21 72 -23 95 -4 43 36 42 39 -136 513 -107 283 -179 460
-193 474 -32 31 -66 36 -107 16z m47 -651 c-82 -1 -152 -1 -154 2 -2 2 31 94
73 205 l77 202 77 -203 76 -203 -149 -3z"/>
<path d="M3045 3069 c-46 -26 -45 -19 -45 -505 0 -254 3 -470 6 -479 10 -24
60 -46 89 -39 56 14 55 9 55 515 0 430 -1 468 -17 487 -22 26 -62 35 -88 21z"/>
</g>
</svg>
