<?xml version="1.0" standalone="no"?>
<!DOCTYPE svg PUBLIC "-//W3C//DTD SVG 20010904//EN"
 "http://www.w3.org/TR/2001/REC-SVG-20010904/DTD/svg10.dtd">
<svg version="1.0" xmlns="http://www.w3.org/2000/svg"
 width="512.000000pt" height="512.000000pt" viewBox="0 0 512.000000 512.000000"
 preserveAspectRatio="xMidYMid meet">

<g transform="translate(0.000000,512.000000) scale(0.100000,-0.100000)"
fill="#000000" stroke="none">
<path d="M320 4947 c-49 -16 -133 -102 -148 -153 -17 -58 -17 -730 0 -788 16
-55 99 -138 154 -154 23 -7 67 -12 98 -12 l56 0 0 -80 0 -80 -56 0 c-31 0 -75
-5 -98 -12 -55 -16 -138 -99 -154 -154 -17 -58 -17 -730 0 -788 16 -55 99
-138 154 -154 23 -7 67 -12 98 -12 l56 0 0 -80 0 -80 -56 0 c-31 0 -75 -5 -98
-12 -55 -16 -138 -99 -154 -154 -17 -58 -17 -730 0 -788 16 -55 99 -138 154
-154 31 -9 237 -12 818 -12 l776 0 0 -337 c0 -334 1 -339 24 -388 114 -245
805 -413 1616 -391 741 19 1274 170 1376 391 l24 50 0 1235 0 1235 -24 50
c-94 203 -549 346 -1229 387 l-206 12 -12 28 c-16 40 -90 102 -137 116 -22 7
-65 12 -96 12 l-56 0 0 80 0 80 56 0 c31 0 75 5 98 12 55 16 138 99 154 154
17 58 17 730 0 788 -16 55 -99 138 -154 154 -56 16 -2981 16 -3034 -1z m2790
-166 c5 -11 10 -47 10 -80 l0 -61 -40 0 -40 0 0 -80 0 -80 40 0 40 0 0 -80 0
-80 -40 0 -40 0 0 -80 0 -80 40 0 40 0 0 -61 c0 -33 -5 -69 -10 -80 -11 -19
-36 -19 -1371 -19 l-1361 0 -29 29 -29 29 0 342 0 342 29 29 29 29 1361 0
c1335 0 1360 0 1371 -19z m-2150 -1021 l0 -80 -160 0 -160 0 0 80 0 80 160 0
160 0 0 -80z m1600 0 l0 -80 -720 0 -720 0 0 80 0 80 720 0 720 0 0 -80z m480
0 l0 -80 -160 0 -160 0 0 80 0 80 160 0 160 0 0 -80z m-55 -256 c-304 -34
-495 -71 -675 -131 -134 -44 -229 -94 -297 -156 -89 -82 -93 -96 -93 -312 l0
-185 -771 0 -771 0 -29 29 -29 29 0 342 0 342 29 29 29 29 1364 -1 c1202 -1
1349 -3 1243 -15z m935 -169 c261 -27 491 -76 662 -141 88 -33 186 -93 206
-127 15 -25 15 -29 0 -54 -35 -58 -199 -136 -393 -186 -273 -71 -545 -100
-945 -101 -462 -1 -788 40 -1080 135 -163 53 -290 131 -290 179 0 48 119 122
285 178 207 69 466 111 835 136 117 8 582 -4 720 -19z m-1749 -568 c293 -140
814 -217 1384 -204 494 12 903 84 1152 202 l93 44 0 -294 0 -293 -32 -33 c-18
-18 -73 -52 -123 -75 -542 -256 -1869 -256 -2410 0 -49 23 -105 57 -122 75
l-33 33 0 295 c0 162 3 293 8 291 4 -2 41 -21 83 -41z m-1211 -287 l0 -80
-160 0 -160 0 0 80 0 80 160 0 160 0 0 -80z m960 0 l0 -80 -400 0 -400 0 0 80
0 80 400 0 400 0 0 -80z m0 -640 l0 -400 -771 0 -771 0 -29 29 -29 29 0 342 0
342 29 29 29 29 771 0 771 0 0 -400z m251 127 c501 -241 1658 -278 2342 -76
56 17 144 50 195 74 l92 44 0 -294 0 -293 -32 -33 c-18 -18 -73 -52 -123 -75
-542 -256 -1869 -256 -2410 0 -49 23 -105 57 -122 75 l-33 33 0 295 c0 162 3
293 8 291 4 -2 41 -21 83 -41z m0 -800 c501 -241 1658 -278 2342 -76 56 17
144 50 195 74 l92 44 0 -294 0 -293 -31 -32 c-86 -85 -368 -179 -674 -224
-453 -67 -1045 -57 -1454 25 -246 49 -460 129 -528 198 l-33 33 0 295 c0 162
3 293 8 291 4 -2 41 -21 83 -41z"/>
<path d="M502 4617 c-21 -22 -22 -32 -22 -216 0 -258 -17 -241 240 -241 257 0
240 -17 240 240 0 257 18 240 -243 240 -189 0 -194 0 -215 -23z m298 -217 l0
-80 -80 0 -80 0 0 80 0 80 80 0 80 0 0 -80z"/>
<path d="M1142 4617 c-21 -22 -22 -32 -22 -216 0 -258 -17 -241 240 -241 189
0 191 0 215 25 25 24 25 26 25 215 0 257 18 240 -243 240 -189 0 -194 0 -215
-23z m298 -217 l0 -80 -80 0 -80 0 0 80 0 80 80 0 80 0 0 -80z"/>
<path d="M1760 4560 l0 -80 560 0 560 0 0 80 0 80 -560 0 -560 0 0 -80z"/>
<path d="M1760 4240 l0 -80 560 0 560 0 0 80 0 80 -560 0 -560 0 0 -80z"/>
<path d="M502 3337 c-21 -22 -22 -32 -22 -216 0 -258 -17 -241 240 -241 257 0
240 -17 240 240 0 257 18 240 -243 240 -189 0 -194 0 -215 -23z m298 -217 l0
-80 -80 0 -80 0 0 80 0 80 80 0 80 0 0 -80z"/>
<path d="M1142 3337 c-21 -22 -22 -32 -22 -216 0 -258 -17 -241 240 -241 189
0 191 0 215 25 25 24 25 26 25 215 0 257 18 240 -243 240 -189 0 -194 0 -215
-23z m298 -217 l0 -80 -80 0 -80 0 0 80 0 80 80 0 80 0 0 -80z"/>
<path d="M3360 2240 l0 -80 80 0 80 0 0 80 0 80 -80 0 -80 0 0 -80z"/>
<path d="M502 2057 c-21 -22 -22 -32 -22 -216 0 -258 -17 -241 240 -241 257 0
240 -17 240 240 0 257 18 240 -243 240 -189 0 -194 0 -215 -23z m298 -217 l0
-80 -80 0 -80 0 0 80 0 80 80 0 80 0 0 -80z"/>
<path d="M1142 2057 c-21 -22 -22 -32 -22 -216 0 -258 -17 -241 240 -241 257
0 240 -17 240 240 0 257 18 240 -243 240 -189 0 -194 0 -215 -23z m298 -217
l0 -80 -80 0 -80 0 0 80 0 80 80 0 80 0 0 -80z"/>
<path d="M3360 1360 l0 -80 80 0 80 0 0 80 0 80 -80 0 -80 0 0 -80z"/>
<path d="M3360 640 l0 -80 80 0 80 0 0 80 0 80 -80 0 -80 0 0 -80z"/>
</g>
</svg>
